<svg version="1.1" id="Layer_1" xmlns="http://www.w3.org/2000/svg" xmlns:xlink="http://www.w3.org/1999/xlink" x="0px" y="0px"
	 width="34.789px" height="34.789px" viewBox="0 0 34.789 34.789" enable-background="new 0 0 34.789 34.789" xml:space="preserve">
<g>
	<path fill="#2F8EC1" d="M34.79,32.742c0,1.125-0.918,2.047-2.045,2.047H2.046c-1.123,0-2.047-0.922-2.047-2.047V2.043
		C-0.001,0.918,0.923,0,2.046,0h30.699c1.127,0,2.045,0.918,2.045,2.043V32.742z"/>
	<path fill="#FFFFFF" d="M16.575,12.4c0.375,0.521,0.564,1.148,0.564,1.877c0,0.75-0.189,1.355-0.568,1.811
		c-0.211,0.256-0.525,0.49-0.939,0.699c0.629,0.23,1.102,0.59,1.422,1.086s0.48,1.096,0.48,1.805c0,0.727-0.184,1.381-0.549,1.959
		c-0.232,0.383-0.523,0.707-0.871,0.969c-0.395,0.301-0.854,0.506-1.389,0.615c-0.535,0.113-1.113,0.168-1.74,0.168H7.446V11.088
		h5.941C14.89,11.109,15.95,11.549,16.575,12.4z M9.897,13.227v2.711h2.99c0.533,0,0.967-0.102,1.299-0.305
		c0.334-0.203,0.502-0.562,0.502-1.082c0-0.568-0.223-0.949-0.662-1.135c-0.379-0.127-0.863-0.189-1.453-0.189H9.897z M9.897,17.973
		v3.279h2.986c0.533,0,0.947-0.072,1.246-0.215c0.539-0.27,0.807-0.779,0.807-1.535c0-0.641-0.26-1.08-0.781-1.318
		c-0.293-0.135-0.703-0.207-1.23-0.211H9.897z"/>
	<path fill="#FFFFFF" d="M24.97,14.479c0.633,0.283,1.158,0.732,1.57,1.346c0.373,0.539,0.615,1.166,0.727,1.879
		c0.062,0.418,0.09,1.02,0.078,1.805H20.72c0.037,0.914,0.354,1.555,0.951,1.92c0.363,0.229,0.799,0.342,1.312,0.342
		c0.539,0,0.98-0.139,1.32-0.418c0.182-0.148,0.344-0.357,0.486-0.623h2.43c-0.064,0.539-0.357,1.086-0.881,1.645
		c-0.814,0.883-1.957,1.326-3.422,1.326c-1.211,0-2.279-0.373-3.205-1.121c-0.924-0.744-1.387-1.961-1.387-3.641
		c0-1.576,0.416-2.785,1.252-3.625c0.836-0.838,1.92-1.262,3.254-1.262C23.622,14.051,24.335,14.193,24.97,14.479z M21.411,16.531
		c-0.336,0.348-0.547,0.818-0.633,1.408h4.096c-0.041-0.631-0.254-1.107-0.631-1.436c-0.381-0.328-0.852-0.49-1.412-0.49
		C22.222,16.014,21.747,16.188,21.411,16.531z"/>
	<rect x="20.163" y="11.664" fill="#FFFFFF" width="5.27" height="1.527"/>
</g>
</svg>
