<svg version="1.1" id="Layer_1" xmlns="http://www.w3.org/2000/svg" xmlns:xlink="http://www.w3.org/1999/xlink" x="0px" y="0px"
	 width="34.125px" height="34.582px" viewBox="0 0 34.125 34.582" enable-background="new 0 0 34.125 34.582" xml:space="preserve">
<g>
	<path fill="#E2203D" d="M12.048,22.658c0-0.066-0.059-0.121-0.129-0.121h-0.002c-0.011,0-0.015,0-0.021,0.002l-4.928,0.98
		c-0.042,0.008-0.073,0.037-0.096,0.076l-2.776,6.729c-0.022,0.049-0.007,0.102,0.024,0.137c0.023,0.025,0.059,0.037,0.088,0.037
		c0.02,0,0.036-0.006,0.047-0.01l6.729-2.77c0.041-0.018,0.061-0.055,0.075-0.096l0.982-4.932
		C12.041,22.68,12.048,22.67,12.048,22.658z"/>
	<path fill="#E2203D" d="M6.872,10.988c0.022,0.039,0.054,0.066,0.096,0.074l4.935,0.986c0.007,0.006,0.017,0.01,0.024,0.01
		c0.035,0,0.067-0.016,0.093-0.037c0.028-0.033,0.042-0.076,0.032-0.117l-0.987-4.939c-0.006-0.039-0.038-0.072-0.076-0.092
		L4.255,4.096C4.244,4.088,4.228,4.084,4.208,4.084c-0.029,0-0.064,0.012-0.088,0.037C4.089,4.154,4.073,4.209,4.096,4.256
		L6.872,10.988z"/>
	<path fill="#E2203D" d="M27.253,23.596c-0.022-0.039-0.054-0.068-0.096-0.076l-4.928-0.98c-0.007-0.002-0.011-0.002-0.021-0.002
		h-0.002c-0.07,0-0.129,0.055-0.129,0.121c0,0.012,0.007,0.021,0.007,0.033l0.982,4.932c0.015,0.041,0.034,0.078,0.075,0.096
		l6.729,2.77c0.011,0.004,0.027,0.01,0.047,0.01c0.029,0,0.064-0.012,0.088-0.037c0.031-0.035,0.047-0.088,0.024-0.137
		L27.253,23.596z"/>
	<path fill="#E2203D" d="M22.105,12.021c0.025,0.021,0.058,0.037,0.093,0.037c0.008,0,0.018-0.004,0.024-0.01l4.935-0.986
		c0.042-0.008,0.073-0.035,0.096-0.074l2.776-6.732c0.022-0.047,0.007-0.102-0.024-0.135c-0.023-0.025-0.059-0.037-0.088-0.037
		c-0.02,0-0.036,0.004-0.047,0.012l-6.733,2.777c-0.038,0.02-0.07,0.053-0.076,0.092l-0.987,4.939
		C22.063,11.945,22.077,11.988,22.105,12.021z"/>
	<path fill="#E2203D" d="M31.413,17.289c0-0.043,0.01-0.084,0.023-0.125l2.675-4.965c0.018-0.043,0.018-0.096-0.007-0.131
		c-0.032-0.035-0.063-0.055-0.106-0.055c-0.008,0-0.011,0.002-0.022,0.002l-14.322,2.881c0,0-0.007,0-0.012,0
		c-0.023,0.008-0.041,0.01-0.066,0.01c-0.19,0-0.347-0.156-0.347-0.348c0-0.016,0-0.033,0.008-0.061v-0.014l0.94-4.693l1.929-9.641
		c0.017-0.047-0.005-0.094-0.047-0.127C22.039,0.008,22.014,0,21.987,0c-0.018,0-0.039,0.006-0.064,0.018l-4.216,2.273
		c-0.203,0.092-0.421,0.137-0.645,0.137s-0.441-0.045-0.645-0.137l-4.216-2.273C12.177,0.006,12.155,0,12.138,0
		c-0.026,0-0.052,0.008-0.071,0.023c-0.042,0.033-0.063,0.08-0.047,0.127l1.929,9.641l0.94,4.693v0.014
		c0.008,0.027,0.008,0.045,0.008,0.061c0,0.191-0.156,0.348-0.347,0.348c-0.025,0-0.043-0.002-0.066-0.01c-0.005,0-0.012,0-0.012,0
		L0.149,12.016c-0.012,0-0.015-0.002-0.022-0.002c-0.043,0-0.074,0.02-0.106,0.055c-0.024,0.035-0.024,0.088-0.007,0.131
		l2.675,4.965c0.014,0.041,0.023,0.082,0.023,0.125c0,0.057-0.01,0.107-0.03,0.152l-2.668,4.947
		c-0.021,0.041-0.018,0.09,0.007,0.133c0.024,0.029,0.063,0.049,0.101,0.049c0.008,0,0.017,0,0.028-0.004l14.36-2.873
		c0.015-0.004,0.03-0.004,0.04-0.004c0.19,0,0.347,0.156,0.347,0.35v0.002v0.008l-0.948,4.721l-1.929,9.66
		c-0.017,0.045,0.005,0.098,0.047,0.129c0.02,0.016,0.045,0.023,0.071,0.023c0.018,0,0.039-0.006,0.056-0.016l4.218-2.264
		c0.206-0.098,0.426-0.145,0.651-0.148c0.226,0.004,0.445,0.051,0.651,0.148l4.218,2.264c0.017,0.01,0.038,0.016,0.056,0.016
		c0.026,0,0.052-0.008,0.071-0.023c0.042-0.031,0.063-0.084,0.047-0.129l-1.929-9.66l-0.948-4.721v-0.008v-0.002
		c0-0.193,0.156-0.35,0.347-0.35c0.01,0,0.025,0,0.04,0.004l14.36,2.873c0.012,0.004,0.021,0.004,0.028,0.004
		c0.037,0,0.076-0.02,0.101-0.049c0.024-0.043,0.027-0.092,0.007-0.133l-2.668-4.947C31.423,17.396,31.413,17.346,31.413,17.289z"/>
</g>
</svg>
