<svg version="1.1" id="Layer_1" xmlns="http://www.w3.org/2000/svg" xmlns:xlink="http://www.w3.org/1999/xlink" x="0px" y="0px"
	 width="89.664px" height="89.663px" viewBox="0 0 89.664 89.663" enable-background="new 0 0 89.664 89.663" xml:space="preserve">
<path fill="#E2203D" d="M87.074,0H2.602C1.164,0,0,1.161,0,2.598v47.099V52.7c0,1.438,1.164,2.59,2.602,2.59h25.508l-4.518,11.995
	H15.01c-1.438,0-2.602,1.173-2.602,2.601c0,1.429,1.164,2.59,2.602,2.59h6.619l-5.162,13.68c-0.5,1.34,0.17,2.84,1.508,3.34
	c0.307,0.12,0.621,0.168,0.916,0.168c1.053,0,2.037-0.64,2.434-1.676l5.852-15.512h15.068v14.596c0,1.429,1.162,2.592,2.59,2.592
	c1.438,0,2.59-1.163,2.59-2.592V72.476h15.068l5.85,15.512c0.393,1.036,1.379,1.676,2.436,1.676c0.301,0,0.609-0.048,0.912-0.168
	c1.342-0.5,2.018-2,1.506-3.34l-5.158-13.68h6.627c1.439,0,2.6-1.161,2.6-2.59c0-1.428-1.16-2.601-2.6-2.601h-8.576L61.559,55.29
	h25.516c1.43,0,2.59-1.152,2.59-2.59v-3.004V2.598C89.664,1.161,88.504,0,87.074,0z M5.193,5.19h79.281v41.916H5.193V5.19z
	 M29.135,67.285l4.52-11.995h8.59v11.995H29.135z M60.533,67.285H47.424V55.29h8.586L60.533,67.285z"/>
</svg>
