<svg version="1.1" id="Layer_1" xmlns="http://www.w3.org/2000/svg" xmlns:xlink="http://www.w3.org/1999/xlink" x="0px" y="0px"
	 width="59.959px" height="60.035px" viewBox="0 0 59.959 60.035" enable-background="new 0 0 59.959 60.035" xml:space="preserve">
<path fill="#E2203D" d="M44.244,12.459c1.807,0,3.278,1.474,3.278,3.278c0,0.412,0.33,0.741,0.741,0.741
	c0.41,0,0.74-0.329,0.74-0.741c0-1.805,1.47-3.278,3.275-3.278c0.411,0,0.744-0.328,0.744-0.74c0-0.408-0.333-0.741-0.744-0.741
	c-1.806,0-3.275-1.47-3.275-3.278c0-0.411-0.33-0.74-0.74-0.74c-0.411,0-0.741,0.329-0.741,0.74c0,1.809-1.472,3.278-3.278,3.278
	c-0.41,0-0.742,0.333-0.742,0.741C43.502,12.131,43.834,12.459,44.244,12.459z M8.883,42.994c-1.178,0-2.136-0.957-2.136-2.133
	c0-0.268-0.218-0.484-0.484-0.484S5.78,40.594,5.78,40.861c0,1.176-0.958,2.133-2.138,2.133c-0.267,0-0.482,0.219-0.482,0.489
	c0,0.263,0.216,0.48,0.482,0.48c1.18,0,2.138,0.959,2.138,2.135c0,0.266,0.216,0.483,0.482,0.483s0.484-0.218,0.484-0.483
	c0-1.176,0.958-2.135,2.136-2.135c0.27,0,0.483-0.218,0.483-0.48C9.366,43.213,9.152,42.994,8.883,42.994z M56.867,37.596
	c-1.349,0-2.446-1.096-2.446-2.443c0-0.307-0.248-0.554-0.555-0.554c-0.305,0-0.552,0.247-0.552,0.554
	c0,1.348-1.099,2.443-2.449,2.443c-0.305,0-0.552,0.248-0.552,0.558c0,0.302,0.247,0.553,0.552,0.553
	c1.351,0,2.449,1.097,2.449,2.445c0,0.306,0.247,0.553,0.552,0.553c0.307,0,0.555-0.247,0.555-0.553
	c0-1.349,1.098-2.445,2.446-2.445c0.307,0,0.552-0.251,0.552-0.553C57.419,37.844,57.174,37.596,56.867,37.596z M42.204,18.794
	c-0.011-0.062-0.021-0.122-0.038-0.181C40.608,7.832,32.847,0.038,23.626,0.038c-4.273,0-10.717,1.68-17.174,9.736
	c-0.606,0.805-1.924,2.856-1.091,4.53c0.34,0.679,1.453,1.834,4.188,1.275c0.1-0.021,0.199-0.05,0.292-0.09
	c0.024-0.01,2.266-0.906,4.401-0.906c1.199,0,2.062,0.28,2.566,0.834c0.715,0.784,0.772,2.2,0.686,3.291
	c-0.006,0.029-0.009,0.059-0.012,0.089c-5.91,0.8-16.745,2.998-16.745,8.351c0,3.639,5.093,6.123,12.096,7.576
	c-0.768,2.167-1.496,4.772-1.6,7.108c-0.026,0.586,0.258,1.146,0.746,1.473c0.092,0.062,0.191,0.114,0.294,0.157
	c-0.117,2.856-0.134,7.425,0.759,9.507c0.224,0.526,0.702,0.902,1.265,0.998c0.393,0.068,0.793-0.006,1.132-0.201
	c2.015,2.134,6.48,5.683,14.306,6.266c0.041,0.003,0.082,0.003,0.122,0.003c0.001,0,0.001,0,0.001,0h0.002h0.002c0,0,0,0,0.001,0
	c0.04,0,0.08,0,0.122-0.003c7.825-0.583,12.292-4.132,14.306-6.266c0.34,0.195,0.738,0.27,1.132,0.201
	c0.563-0.096,1.041-0.472,1.266-0.998c0.893-2.082,0.874-6.65,0.759-9.507c0.103-0.043,0.201-0.096,0.292-0.157
	c0.49-0.327,0.773-0.887,0.748-1.473c-0.104-2.336-0.833-4.944-1.601-7.108c7.004-1.453,12.097-3.938,12.097-7.576
	C58.982,21.789,48.128,19.594,42.204,18.794z M39.495,25.057c-1.081,0.526-4.514,1.291-9.872,1.291
	c-5.209,0-8.593-0.722-9.773-1.245c0.052-0.261,0.11-0.571,0.175-0.898c0.013-0.064,0.022-0.124,0.035-0.188
	c0.105-0.554,0.215-1.16,0.321-1.772c2.331,0.583,5.634,0.925,9.242,0.925c3.163,0,6.913-0.282,9.572-1.011
	C39.327,23.389,39.438,24.467,39.495,25.057z M14.242,11.212c-2.335,0-4.625,0.764-5.4,1.051c0.087-0.152,0.184-0.298,0.273-0.419
	c4.424-5.518,9.442-8.433,14.511-8.433c7.431,0,13.717,6.427,15.138,15.356c-1.697,0.547-5.008,1.028-9.141,1.028
	c-3.953,0-7.01-0.423-8.776-0.919c0.178-2.464-0.329-4.398-1.548-5.736C18.132,11.861,16.43,11.212,14.242,11.212z M38.108,45.757
	c-2.556-3.549-7.551-3.559-8.241-3.535c-0.603-0.03-5.639-0.056-8.256,3.535c-1.13-1.012-2.97-5.078-3.151-10.134
	c3.662,0.438,7.566,0.662,11.397,0.662c3.835,0,7.74-0.224,11.402-0.662C41.077,40.679,39.238,44.745,38.108,45.757z M29.857,32.913
	c-16.659,0-25.747-3.808-25.747-5.765c0-1.098,3.8-3.525,12.84-4.873c-0.213,1.187-0.422,2.256-0.51,2.662
	c-0.097,0.228-0.143,0.478-0.125,0.734c0,0.004,0,0.004,0,0.004c0.01,0.181,0.053,0.358,0.118,0.523
	c0.925,3.046,8.55,3.521,13.189,3.521c4.595,0,12.128-0.465,13.162-3.441c0.092-0.199,0.148-0.413,0.158-0.637v-0.004
	c0.003-0.085-0.02-0.164-0.031-0.25c-0.01-0.083-0.007-0.171-0.03-0.25c-0.011-0.132-0.023-0.29-0.039-0.462
	c-0.005-0.062-0.012-0.124-0.018-0.19c-0.012-0.122-0.023-0.25-0.037-0.382c-0.052-0.544-0.118-1.176-0.19-1.852
	c9.164,1.338,13.012,3.788,13.012,4.896C55.609,29.105,46.521,32.913,29.857,32.913z"/>
</svg>
