<?xml version="1.0" encoding="utf-8"?>
<!-- Generator: Adobe Illustrator 16.0.0, SVG Export Plug-In . SVG Version: 6.00 Build 0)  -->
<!DOCTYPE svg PUBLIC "-//W3C//DTD SVG 1.1//EN" "http://www.w3.org/Graphics/SVG/1.1/DTD/svg11.dtd">
<svg version="1.1" id="Layer_1" xmlns="http://www.w3.org/2000/svg" xmlns:xlink="http://www.w3.org/1999/xlink" x="0px" y="0px"
	 width="21.36px" height="21.36px" viewBox="0 0 21.36 21.36" enable-background="new 0 0 21.36 21.36" xml:space="preserve">
<path fill="#662D91" d="M20.13,3.318h-1.232V1.316c0-0.767-0.619-1.388-1.385-1.388c-0.764,0-1.386,0.621-1.386,1.388v2.002h-4.061
	V1.316c0-0.767-0.623-1.388-1.386-1.388c-0.769,0-1.388,0.621-1.388,1.388v2.002H5.215V1.316c0-0.767-0.62-1.388-1.386-1.388
	c-0.764,0-1.386,0.621-1.386,1.388v2.002H1.228C0.551,3.318,0,3.871,0,4.551v15.65c0,0.678,0.551,1.23,1.228,1.23H20.13
	c0.679,0,1.229-0.552,1.229-1.23V4.551C21.359,3.871,20.809,3.318,20.13,3.318z M18.899,18.971H2.457V9.252h16.442V18.971z"/>
</svg>
