<svg version="1.1" id="Layer_1" xmlns="http://www.w3.org/2000/svg" xmlns:xlink="http://www.w3.org/1999/xlink" x="0px" y="0px"
	 width="89.664px" height="89.663px" viewBox="0 0 89.664 89.663" enable-background="new 0 0 89.664 89.663" xml:space="preserve">
<path fill="#E2203D" d="M89.204,85.606l-8.268-12.354l-2.49-11.699c-0.09-0.415-0.281-0.805-0.554-1.131l-8.195-9.715
	c3.732-1.929,7.276-4.253,10.501-7.034c1.084-0.937,1.206-2.573,0.271-3.658c-0.94-1.086-2.576-1.208-3.658-0.273
	c-3.217,2.776-6.766,5.081-10.534,6.915L52.59,30.434c1.473-1.764,2.397-4.001,2.397-6.474c0-4.7-3.223-8.624-7.562-9.779V2.613
	c0-1.43-1.161-2.593-2.593-2.593c-1.434,0-2.593,1.163-2.593,2.593v11.568c-4.341,1.155-7.563,5.079-7.563,9.779
	c0,2.472,0.923,4.71,2.398,6.474L23.386,46.657c-3.77-1.834-7.322-4.144-10.542-6.918c-1.085-0.937-2.722-0.813-3.654,0.267
	c-0.937,1.089-0.815,2.726,0.27,3.66c3.227,2.785,6.77,5.112,10.508,7.042l-8.197,9.715c-0.273,0.326-0.462,0.716-0.554,1.131
	L8.729,73.252L0.461,85.606c-0.798,1.192-0.48,2.8,0.712,3.596c0.441,0.298,0.942,0.441,1.44,0.441c0.835,0,1.657-0.406,2.156-1.151
	l19.935-29.791l3.137-4.687c5.443,1.799,11.166,2.786,16.992,2.786h0.002c5.826,0,11.546-0.987,16.99-2.784l3.137,4.685
	l19.933,29.791c0.499,0.745,1.323,1.151,2.158,1.151c0.496,0,0.997-0.143,1.438-0.441C89.682,88.406,90.002,86.798,89.204,85.606z
	 M44.833,18.988c2.739,0,4.97,2.232,4.97,4.972c0,2.742-2.23,4.969-4.97,4.969c-2.741,0-4.972-2.228-4.972-4.969
	C39.861,21.221,42.091,18.988,44.833,18.988z M44.836,51.616h-0.004c-4.782,0-9.486-0.735-13.997-2.078l10.717-16.013
	c1.034,0.354,2.125,0.589,3.28,0.589c1.153,0,2.246-0.236,3.28-0.589L58.83,49.539C54.318,50.885,49.614,51.616,44.836,51.616z"/>
</svg>
