<?xml version="1.0" encoding="utf-8"?>
<!-- Generator: Adobe Illustrator 16.0.0, SVG Export Plug-In . SVG Version: 6.00 Build 0)  -->
<!DOCTYPE svg PUBLIC "-//W3C//DTD SVG 1.1//EN" "http://www.w3.org/Graphics/SVG/1.1/DTD/svg11.dtd">
<svg version="1.1" id="Layer_1" xmlns="http://www.w3.org/2000/svg" xmlns:xlink="http://www.w3.org/1999/xlink" x="0px" y="0px"
	 width="21.36px" height="21.36px" viewBox="0 0 21.36 21.36" enable-background="new 0 0 21.36 21.36" xml:space="preserve">
<g>
	<path fill="#58595B" d="M20.066,20.067c-0.391,0.391-1.023,0.391-1.414,0l-8.904-8.904c-0.391-0.391-0.391-1.023,0-1.414
		s1.023-0.391,1.414,0l8.904,8.904C20.457,19.044,20.457,19.677,20.066,20.067z"/>
	<path fill="#58595B" d="M20.773,20.774c-0.781,0.781-2.047,0.781-2.828,0l-5.996-5.996c-0.781-0.781-0.781-2.047,0-2.828
		s2.047-0.781,2.828,0l5.996,5.996C21.555,18.728,21.555,19.993,20.773,20.774z"/>
	<path fill="#27AAE1" d="M11.162,11.163c-2.551,2.551-6.699,2.551-9.25,0c-2.551-2.549-2.551-6.699,0-9.25
		c2.549-2.551,6.699-2.551,9.25,0S13.713,8.614,11.162,11.163z M3.326,3.327c-1.771,1.771-1.771,4.652,0,6.422
		c1.77,1.771,4.65,1.771,6.422,0c1.77-1.77,1.77-4.65,0-6.422C7.977,1.558,5.096,1.558,3.326,3.327z"/>
	<path fill="#939598" d="M17.945,20.774c0.781,0.781,2.047,0.781,2.828,0s0.781-2.047,0-2.828l-5.996-5.996l-2.828,2.828
		L17.945,20.774z"/>
</g>
</svg>
