<?xml version="1.0" encoding="utf-8"?>
<!-- Generator: Adobe Illustrator 16.0.0, SVG Export Plug-In . SVG Version: 6.00 Build 0)  -->
<!DOCTYPE svg PUBLIC "-//W3C//DTD SVG 1.1//EN" "http://www.w3.org/Graphics/SVG/1.1/DTD/svg11.dtd">
<svg version="1.1" id="Layer_1" xmlns="http://www.w3.org/2000/svg" xmlns:xlink="http://www.w3.org/1999/xlink" x="0px" y="0px"
	 width="59.959px" height="60.035px" viewBox="0 0 59.959 60.035" enable-background="new 0 0 59.959 60.035" xml:space="preserve">
<path fill="#C6BFAE" d="M59.665,57.299l-5.529-8.266l-1.668-7.826c-0.057-0.27-0.18-0.521-0.352-0.734l-0.852-1.045l8.131-8.131
	c0.678-0.678,0.678-1.775,0-2.453l-5.795-5.797c-0.678-0.678-1.775-0.678-2.453,0l-7.291,7.291L34.3,18.609
	c0.145-0.443,0.244-0.908,0.244-1.4c0-1.906-1.17-3.537-2.83-4.219V1.771c0-0.957-0.775-1.734-1.734-1.734s-1.734,0.777-1.734,1.734
	V12.99c-1.66,0.682-2.828,2.312-2.828,4.219c0,0.492,0.098,0.957,0.242,1.4l-9.557,11.729l-7.291-7.291
	c-0.678-0.678-1.775-0.678-2.453,0l-5.797,5.797c-0.676,0.678-0.676,1.775,0,2.453l8.133,8.131l-0.852,1.045
	c-0.172,0.213-0.295,0.465-0.352,0.734l-1.668,7.826l-5.529,8.266c-0.535,0.797-0.318,1.875,0.477,2.406
	c0.295,0.197,0.631,0.293,0.963,0.293c0.559,0,1.109-0.27,1.443-0.771l5.717-8.545c0.002,0,0.002,0,0.002,0l4.432-6.621
	l15.426,15.428c0.326,0.324,0.766,0.508,1.227,0.508s0.9-0.184,1.227-0.508l15.426-15.428l4.432,6.621c0,0,0,0,0.002,0l5.717,8.545
	c0.334,0.502,0.885,0.771,1.443,0.771c0.332,0,0.668-0.096,0.963-0.293C59.983,59.174,60.2,58.096,59.665,57.299z M28.431,21.486
	c0.486,0.176,1.004,0.287,1.549,0.287s1.062-0.111,1.549-0.287l8.49,12.689L29.979,44.213L19.94,34.176L28.431,21.486z
	 M52.374,26.727l3.344,3.344l-6.656,6.654l-3.004-3.686L52.374,26.727z M4.241,30.07l3.344-3.344l6.316,6.312l-3.004,3.686
	L4.241,30.07z M17.974,37.113l9.553,9.553l-3.346,3.344l-8.887-8.889L17.974,37.113z M26.636,52.461l3.344-3.344l3.344,3.344
	l-3.344,3.348L26.636,52.461z M35.778,50.01l-3.346-3.344l9.553-9.553l2.68,4.008L35.778,50.01z"/>
</svg>
