<?xml version="1.0" encoding="utf-8"?>
<!-- Generator: Adobe Illustrator 16.0.0, SVG Export Plug-In . SVG Version: 6.00 Build 0)  -->
<!DOCTYPE svg PUBLIC "-//W3C//DTD SVG 1.1//EN" "http://www.w3.org/Graphics/SVG/1.1/DTD/svg11.dtd">
<svg version="1.1" id="Layer_1" xmlns="http://www.w3.org/2000/svg" xmlns:xlink="http://www.w3.org/1999/xlink" x="0px" y="0px"
	 width="21.36px" height="21.36px" viewBox="0 0 21.36 21.36" enable-background="new 0 0 21.36 21.36" xml:space="preserve">
<path fill="#662D91" d="M20.064,10.665c0.499-1.333,1.104-2.006,1.109-2.015c0.117-0.126,0.179-0.296,0.164-0.47
	c-0.013-0.172-0.097-0.332-0.235-0.438l-3.964-3.083c-0.04-0.029-0.08-0.05-0.122-0.069c0.469-1.194,0.732-2.535,0.732-3.953
	c0-0.34-0.276-0.617-0.616-0.617H14.68c-0.323,0-0.59,0.248-0.615,0.569c-0.088,1.083-0.395,2.258-0.833,3.271
	C12.474,3.433,11.605,3.19,10.68,3.19S8.884,3.433,8.13,3.859C7.689,2.846,7.383,1.67,7.297,0.588
	C7.27,0.267,7.003,0.019,6.682,0.019H4.227c-0.34,0-0.616,0.277-0.616,0.617c0,1.418,0.265,2.759,0.732,3.953
	c-0.042,0.019-0.082,0.04-0.122,0.069L0.257,7.741C0.12,7.848,0.036,8.008,0.023,8.178C0.009,8.35,0.068,8.52,0.184,8.648
	c0.01,0.01,0.612,0.684,1.112,2.017c-1.293,3.152-1.278,7.753-1.276,7.953c0,0.031,0.004,0.065,0.011,0.096
	c-0.007,0.032-0.011,0.065-0.011,0.099c0,2.458,9.569,2.529,10.66,2.529s10.66-0.071,10.66-2.529c0-0.033-0.004-0.067-0.011-0.099
	c0.007-0.031,0.011-0.065,0.011-0.096C21.342,18.418,21.358,13.816,20.064,10.665z M19.864,8.341
	c-0.384,0.564-0.946,1.576-1.317,3.039c-0.603-0.869-1.492-1.952-2.6-2.711c0.247-1.016,0.604-2.094,0.912-2.663L19.864,8.341z
	 M10.68,4.424c0.722,0,1.397,0.195,1.983,0.531c-0.579,0.928-1.278,1.553-1.983,1.553c-0.707,0-1.404-0.625-1.983-1.553
	C9.282,4.619,9.958,4.424,10.68,4.424z M6.13,1.253c0.399,2.833,2.111,6.488,4.55,6.488s4.15-3.655,4.55-6.488h1.267
	c-0.238,3.96-2.757,7.082-5.816,7.082S5.102,5.213,4.863,1.253H6.13z M4.5,6.006c0.309,0.569,0.665,1.647,0.912,2.663
	c-1.107,0.759-1.999,1.842-2.6,2.711C2.441,9.917,1.879,8.906,1.497,8.341L4.5,6.006z M20.112,18.737
	c-0.407,0.479-3.589,1.37-9.433,1.37s-9.023-0.892-9.431-1.37c-0.002-0.009-0.004-0.015-0.006-0.023
	c0.002-0.002,0.002-0.006,0.004-0.01c0.433-2.875,1.771-5.288,1.784-5.311c0.002-0.002,0.004-0.006,0.006-0.011
	c0.002-0.006,0.004-0.01,0.006-0.015c0.016-0.025,1.375-2.694,3.373-3.878h0.002c0.004-0.002,0.004-0.004,0.004-0.004
	c0.004-0.002,0.006-0.004,0.006-0.004l0.009-0.002C6.86,9.216,7.54,8.977,8.069,9.162c0.369,0.13,0.654,0.47,0.85,1.016l0,0
	c0.539,2.465-0.057,5.504-0.057,5.504c0.785,0.162,1.222,1.108,1.286,1.731c0,0,0.009,0.241,0.223,0.338
	c0.036,0.01,0.135,0.021,0.214,0.027v-2.636c-0.192-0.044-0.34-0.216-0.34-0.424c0-0.239,0.195-0.435,0.435-0.435
	s0.435,0.195,0.435,0.435c0,0.208-0.147,0.38-0.34,0.424v2.636c0.079-0.006,0.178-0.017,0.214-0.027
	c0.216-0.097,0.223-0.338,0.223-0.338c0.062-0.624,0.501-1.57,1.286-1.731c0,0-0.594-3.039-0.057-5.504
	c0.195-0.546,0.48-0.886,0.85-1.016c0.529-0.185,1.211,0.054,1.633,0.317l0.006,0.002c0,0,0.005,0.002,0.007,0.004l0.002,0.002
	l0.006,0.002c1.998,1.184,3.357,3.853,3.373,3.878c0.002,0.004,0.004,0.008,0.006,0.015c0.004,0.004,0.004,0.008,0.006,0.011
	c0.016,0.025,1.352,2.426,1.784,5.311c0,0.004,0.004,0.008,0.004,0.01C20.114,18.723,20.112,18.729,20.112,18.737z"/>
</svg>
