<svg version="1.1" id="Layer_1" xmlns="http://www.w3.org/2000/svg" xmlns:xlink="http://www.w3.org/1999/xlink" x="0px" y="0px"
	 width="89.664px" height="89.663px" viewBox="0 0 89.664 89.663" enable-background="new 0 0 89.664 89.663" xml:space="preserve">
<path fill="#E2203D" d="M86.988,8.934h-6.6C65.191-1.005,49.695,6.126,44.826,8.578c-1.402-0.705-2.387-1.791-5.484-2.761
	l-1.416-0.003c0-3.253-1.236-5.903-4.494-5.903H21.23c-0.038,0-0.07,0.021-0.105,0.022c-0.074-0.004-0.145-0.022-0.217-0.022
	c-2.76,0-5.004,2.243-5.004,4.998c0,0.247,0.078,0.472,0.141,0.699C13.776,6.4,11.502,7.469,9.266,8.934h-6.59
	C1.197,8.934,0,10.128,0,11.606v71.585c0,1.474,1.197,2.673,2.676,2.673h35.09c1.295,2.271,3.982,3.799,7.062,3.799
	c3.082,0,5.77-1.528,7.066-3.799h35.094c1.479,0,2.676-1.199,2.676-2.673V11.606C89.664,10.128,88.467,8.934,86.988,8.934z
	 M84.312,19.605v55.957c-14.035-12.414-29.271-7.754-36.805-4.587V13.188C52.621,10.573,70.115,2.655,84.312,19.605z M42.154,13.193
	v57.778c-7.531-3.163-22.765-7.821-36.803,4.591V19.63c5.154-6.158,10.92-9.061,16.434-10.099v26.967
	c0,1.476,1.197,2.673,2.678,2.673h10.785c1.479,0,2.678-1.197,2.678-2.673l1.416-25.137C41.162,12.031,41.195,12.702,42.154,13.193z
	 M33.436,5.257c0.305,0,0.553,0.251,0.553,0.557v28.012h-6.852V5.813c0-0.188-0.008-0.374-0.025-0.557H33.436z M50.021,80.518
	c-1.357,0-2.498,1.013-2.658,2.358c-0.08,0.681-1.143,1.441-2.535,1.441c-1.389,0-2.451-0.76-2.531-1.441
	c-0.16-1.345-1.301-2.358-2.658-2.358H11.512c15.185-10.622,31.123-0.465,31.937,0.024c0.115,0.069,0.246,0.079,0.367,0.131
	c0.168,0.067,0.324,0.144,0.502,0.178c0.174,0.033,0.34,0.025,0.514,0.025c0.172,0,0.336,0.008,0.508-0.025
	c0.176-0.034,0.336-0.107,0.5-0.178c0.125-0.049,0.256-0.061,0.373-0.131c0.812-0.489,16.752-10.641,31.936-0.024H50.021z"/>
</svg>
