<svg version="1.1" id="Layer_1" xmlns="http://www.w3.org/2000/svg" xmlns:xlink="http://www.w3.org/1999/xlink" x="0px" y="0px"
	 width="48.857px" height="60.035px" viewBox="0 0 48.857 60.035" enable-background="new 0 0 48.857 60.035" xml:space="preserve">
<g>
	<path fill="#C6BFAE" d="M18.065,25.217c0.153,0.008,0.868,0.054,1.949,0.054c0.001,0,0.001,0,0.001,0
		c1.249,0,3.185-0.062,5.326-0.353c2.37-0.324,4.495-0.858,6.327-1.59c0.809-0.327,1.434-0.993,1.723-1.854
		c0.42-1.333,3.062-11.802,1.817-16.26C34.204,1.613,29.251,0,24.786,0c-0.832,0-1.662,0.057-2.465,0.165
		c-2.826,0.384-5.114,1.431-6.617,3.028c-4.734,5.027-1.07,17.512-0.291,19.951C15.776,24.311,16.799,25.123,18.065,25.217z
		 M18.23,5.572c0.952-1.012,2.528-1.692,4.559-1.969c0.648-0.09,1.321-0.134,1.997-0.134c3.789,0,6.721,1.384,7.082,2.677
		c0.814,2.922-0.904,11.332-1.714,14.049c-1.515,0.582-3.29,1.014-5.282,1.284c-1.947,0.267-3.717,0.322-4.856,0.322
		c0,0,0,0-0.001,0c-0.612,0-1.092-0.017-1.396-0.03C17.226,17.255,15.473,8.501,18.23,5.572z"/>
	<path fill="#C6BFAE" d="M48.589,59.18c0.083-0.137,0.178-0.268,0.221-0.42c0.028-0.105,0.008-0.217,0.017-0.325
		c0.012-0.138,0.046-0.272,0.023-0.409l-3.902-24.217c-0.017-0.104-0.042-0.207-0.078-0.305c-0.219-0.613-0.683-1.111-1.236-1.35
		c-4.487-2.062-11.487-3.245-19.204-3.245c-7.718,0-14.717,1.183-19.166,3.228c-0.592,0.256-1.057,0.754-1.275,1.367
		c-0.035,0.098-0.061,0.201-0.078,0.305L0.007,58.025c-0.021,0.137,0.012,0.271,0.023,0.409c0.009,0.108-0.012,0.22,0.018,0.325
		c0.042,0.152,0.137,0.283,0.22,0.42c0.046,0.076,0.064,0.168,0.124,0.237l0.003,0.003c0.002,0.002,0.002,0.004,0.004,0.006
		c0.12,0.141,0.277,0.232,0.432,0.326c0.058,0.036,0.099,0.094,0.159,0.121c0.227,0.105,0.475,0.162,0.73,0.162h45.418
		c0.256,0,0.503-0.057,0.729-0.162c0.062-0.027,0.103-0.085,0.159-0.121c0.154-0.094,0.312-0.186,0.433-0.326
		c0.001-0.002,0.001-0.004,0.001-0.004s0.004-0.003,0.006-0.005C48.524,59.348,48.544,59.256,48.589,59.18z M3.781,56.566
		l3.422-19.674c4.043-1.564,10.411-2.49,17.226-2.49c6.789,0,13.133,0.918,17.226,2.49l3.422,19.674H3.781z"/>
</g>
</svg>
