<svg version="1.1" id="Layer_1" xmlns="http://www.w3.org/2000/svg" xmlns:xlink="http://www.w3.org/1999/xlink" x="0px" y="0px"
	 width="59.959px" height="60.035px" viewBox="0 0 59.959 60.035" enable-background="new 0 0 59.959 60.035" xml:space="preserve">
<path fill="#C6BFAE" d="M55.27,58.82c0.032-0.105,0.084-0.199,0.098-0.311l4.527-38.31c0.06-0.489-0.098-0.979-0.429-1.346
	c-0.335-0.368-0.812-0.578-1.312-0.578H57.86l1.013-16.344l0.008-0.118V1.812V1.809c0.007-0.104-0.033-0.202-0.044-0.307
	C58.82,1.375,58.823,1.241,58.78,1.12c-0.048-0.131-0.143-0.241-0.221-0.357c-0.054-0.079-0.083-0.17-0.149-0.239l-0.002-0.002l0,0
	c-0.062-0.065-0.148-0.097-0.22-0.151c-0.307-0.232-0.666-0.391-1.057-0.391H39.656c-0.171,0-0.343,0.025-0.504,0.073
	c-0.049,0.014-0.089,0.044-0.138,0.06c-0.107,0.045-0.219,0.085-0.314,0.148c-0.046,0.028-0.079,0.07-0.122,0.102
	C38.49,0.434,38.4,0.5,38.324,0.586c-0.039,0.045-0.065,0.105-0.099,0.153c-0.059,0.084-0.124,0.163-0.168,0.258l-1.006,2.207H3.868
	c-0.483,0-0.944,0.195-1.277,0.542C2.261,4.092,2.09,4.558,2.12,5.034l0.004,0.092C2.126,5.138,2.12,5.152,2.12,5.166l0.416,6.943
	H1.805c-0.499,0-0.976,0.211-1.311,0.578c-0.332,0.367-0.488,0.857-0.43,1.345l5.257,44.478c0.014,0.113,0.064,0.21,0.099,0.314
	C5.448,58.909,5.46,59,5.5,59.079c0.062,0.117,0.148,0.215,0.233,0.315c0.053,0.061,0.088,0.13,0.146,0.182
	c0.108,0.099,0.238,0.164,0.368,0.233c0.059,0.032,0.105,0.078,0.169,0.104c0.2,0.078,0.417,0.122,0.646,0.122h46.563
	c0.228,0,0.443-0.044,0.645-0.122c0.065-0.025,0.115-0.074,0.179-0.107c0.126-0.067,0.254-0.13,0.358-0.227
	c0.061-0.055,0.099-0.128,0.152-0.19c0.081-0.099,0.169-0.193,0.227-0.308C55.228,59,55.242,58.907,55.27,58.82z M51.982,54.258
	H8.711l-2.422-38.7h24.908l2.249,5.124c0.277,0.633,0.909,1.042,1.608,1.042h19.028L51.982,54.258z M55.264,3.428l-0.958,14.847
	H36.209l-2.247-5.124c-0.277-0.633-0.909-1.042-1.608-1.042H6.073l-0.332-5.32h32.442c0.699,0,1.331-0.408,1.609-1.041l1.016-2.32
	H55.264z"/>
</svg>
