<svg version="1.1" id="Layer_1" xmlns="http://www.w3.org/2000/svg" xmlns:xlink="http://www.w3.org/1999/xlink" x="0px" y="0px"
	 width="18.918px" height="18.918px" viewBox="0 0 18.918 18.918" enable-background="new 0 0 18.918 18.918" xml:space="preserve">
<path fill="#837C73" d="M16.918,0H8.209v2.168h6.771L8.576,8.562C8.088,9.051,8.088,9.842,8.574,10.33
	c0.244,0.246,0.564,0.367,0.885,0.367s0.641-0.121,0.883-0.365l6.408-6.396v6.762h2.168V2C18.918,0.896,18.021,0,16.918,0z
	 M16.75,16.75H2.168V2.168h3.338V0H2C0.896,0,0,0.896,0,2v14.918c0,1.104,0.896,2,2,2h14.918c1.104,0,2-0.896,2-2V13.4H16.75V16.75z
	"/>
</svg>
