<?xml version="1.0" encoding="utf-8"?>
<!-- Generator: Adobe Illustrator 16.0.0, SVG Export Plug-In . SVG Version: 6.00 Build 0)  -->
<!DOCTYPE svg PUBLIC "-//W3C//DTD SVG 1.1//EN" "http://www.w3.org/Graphics/SVG/1.1/DTD/svg11.dtd">
<svg version="1.1" id="Layer_1" xmlns="http://www.w3.org/2000/svg" xmlns:xlink="http://www.w3.org/1999/xlink" x="0px" y="0px"
	 width="235.115px" height="35px" viewBox="0 0 235.115 35" enable-background="new 0 0 235.115 35" xml:space="preserve">
<g>
	<path fill="#312926" d="M117.225,20.914l-0.313-0.313c-0.061-0.059-0.153-0.061-0.216,0c-1.499,1.421-2.385,1.668-3.685,1.668
		c-2.918,0-4.249-2.688-4.249-5.191c0-3.391,1.833-4.909,3.65-4.909c0.576,0,1.181,0.15,1.727,0.435
		c0.467,0.254,0.771,0.554,0.846,0.818c0.032,0.138,0.007,0.27-0.075,0.403c-0.034,0.051-0.032,0.127,0.015,0.177l0.549,0.683
		c0.024,0.034,0.063,0.056,0.109,0.056c0.039,0.007,0.08-0.007,0.106-0.034l0.54-0.467l0.257-0.252
		c0.002-0.007,0.007-0.012,0.01-0.017c0.626-0.668,0.694-1.45,0.174-1.96c0,0-0.005-0.005-0.014-0.012
		c-0.695-0.707-2.473-1.132-3.804-1.132c-4.275,0-6.583,3.639-6.583,7.063c0,3.095,1.94,6.211,6.277,6.211
		c2.281,0,4.354-1.355,4.719-3.09C117.275,21.004,117.263,20.951,117.225,20.914z"/>
	<path fill="#312926" d="M49.988,17.044c0.95-0.709,1.557-1.819,1.557-2.878c0-0.709-0.313-3.029-4.332-3.029h-4.646
		c-0.046,0-0.087,0.02-0.119,0.056c-0.029,0.036-0.042,0.085-0.032,0.128l0.292,1.232c0.015,0.065,0.073,0.114,0.139,0.119
		c0.466,0.031,0.676,0.158,0.768,0.488c0.034,0.865,0.109,4.61,0.109,5.643c0,1.555-0.024,2.791-0.075,3.677
		c-0.068,0.209-0.194,0.335-0.625,0.362c-0.068,0.004-0.119,0.046-0.139,0.104l-0.248,0.726c-0.012,0.046-0.007,0.097,0.029,0.138
		c0.024,0.039,0.065,0.063,0.119,0.063h0.896c1.749,0,2.638,0.078,3.352,0.138c0.464,0.041,0.867,0.075,1.375,0.075
		c2.534,0,4.307-1.61,4.307-3.918C52.716,18.696,51.698,17.54,49.988,17.044z M47.319,16.559c-0.008,0-0.022,0-0.03,0.002
		c-0.354,0.075-0.772,0.122-1.216,0.139v-0.039c0.002-0.005,0.002-0.012,0.002-0.02c0.007-0.588,0.015-1.149,0.017-1.693
		c0.015-0.617,0.024-1.217,0.032-1.807c0.107-0.331,0.741-0.477,1.331-0.477c1.569,0,1.781,0.928,1.781,1.837
		C49.235,15.606,48.606,16.279,47.319,16.559z M46.065,17.79c0-0.054,0.008-0.109,0.008-0.163c2.757,0.097,4.044,0.983,4.044,2.791
		c0,1.152-0.267,2.332-2.262,2.332c-0.636,0-1.717-0.158-1.727-0.755c-0.005-0.301-0.015-0.6-0.024-0.898
		c-0.014-0.571-0.029-1.108-0.029-1.618c0-0.25-0.01-0.488-0.01-0.717c-0.012-0.218-0.012-0.43-0.012-0.634
		C46.053,18.014,46.061,17.902,46.065,17.79z"/>
	<path fill="#312926" d="M75.231,23.688c-0.136-0.617-0.158-2.56-0.158-4.566c0-1.482,0.024-2.74,0.051-3.955
		c0.019-1.047,0.041-2.036,0.041-3.046c0-0.636-0.068-1.127-0.886-1.161c-0.007-0.002-0.022-0.002-0.029-0.002h-1.596
		c-0.048,0-0.097,0.021-0.126,0.06c-0.027,0.044-0.032,0.095-0.019,0.141l0.248,0.724c0.019,0.059,0.068,0.102,0.131,0.107
		c0.488,0.032,0.605,0.172,0.625,0.37c0.022,0.218,0.034,0.481,0.046,0.801c0.049,0.965,0.066,2.502,0.08,3.989
		c0.02,1.088,0.024,2.128,0.051,2.83c-0.284-0.416-0.787-1.062-1.562-2.004l-3.447-4.156c-0.707-0.84-1.37-1.712-1.873-2.453
		c-0.007-0.017-0.017-0.029-0.034-0.044c0-0.007-0.005-0.014-0.007-0.019c-0.005-0.005-0.007-0.01-0.014-0.02
		c-0.056-0.083-0.134-0.153-0.231-0.207l0,0l-0.01-0.002c-0.021-0.015-0.048-0.027-0.067-0.036c-0.015-0.005-0.02-0.008-0.025-0.01
		c-0.138-0.046-0.293-0.07-0.486-0.07H63.81c-0.048,0-0.097,0.021-0.124,0.058c-0.026,0.036-0.042,0.083-0.026,0.128l0.284,1.232
		c0.022,0.065,0.078,0.114,0.141,0.119c0.513,0.033,0.724,0.163,0.779,0.449l0.008,0.216c0.039,0.877,0.111,4.62,0.111,5.643
		c0,1.627-0.038,2.908-0.111,3.799c0,0-0.003,0.017-0.003,0.024c-0.024,0.207-0.138,0.345-0.621,0.379
		c-0.064,0.005-0.117,0.044-0.136,0.102l-0.246,0.726c-0.015,0.046-0.01,0.097,0.022,0.139c0.024,0.041,0.07,0.063,0.126,0.063
		h1.593c0.002,0,0.01,0,0.01,0h0.034c0.811,0,0.811-0.481,0.811-1.36c0-1.479-0.041-2.905-0.08-4.282
		c-0.036-1.246-0.078-2.427-0.08-3.639c0.257,0.396,0.724,1.001,1.484,1.926l3.52,4.209c0.906,1.079,1.538,1.914,1.941,2.543
		c0.223,0.345,0.585,0.549,0.967,0.549c0.491,0,0.891-0.107,0.908-0.112C75.202,23.851,75.248,23.768,75.231,23.688z"/>
	<path fill="#312926" d="M105.489,23.817l-0.243-0.724c-0.019-0.061-0.073-0.102-0.136-0.104c-0.508-0.036-0.603-0.196-0.622-0.362
		c-0.192-2.011-0.192-3.999-0.192-5.92c0-0.738,0.022-1.486,0.037-2.205c0.02-0.743,0.039-1.509,0.039-2.291
		c0-0.733-0.607-1.236-1.516-1.253c0,0-0.005,0-0.02,0h-2.042c-0.048,0-0.092,0.021-0.122,0.058
		c-0.029,0.036-0.036,0.083-0.029,0.128l0.289,1.232c0.015,0.065,0.071,0.114,0.136,0.119c0.518,0.033,0.731,0.163,0.782,0.478
		l0.012,0.187c0.059,1.219,0.092,2.648,0.092,4.027v5.468c0,0.862,0.426,1.335,1.236,1.357c0.008,0.005,0.01,0.005,0.022,0.005
		h2.128c0.056,0,0.1-0.022,0.126-0.065C105.497,23.914,105.504,23.863,105.489,23.817z"/>
	<path fill="#312926" d="M92.242,11.137h-4.98c-0.041,0-0.09,0.02-0.119,0.056c-0.026,0.036-0.038,0.085-0.026,0.128l0.287,1.232
		c0.015,0.065,0.073,0.114,0.136,0.119c0.515,0.034,0.724,0.16,0.785,0.459v0.029c0.029,0.86,0.102,4.606,0.102,5.643
		c0,1.53-0.022,2.762-0.073,3.66v0.005c-0.022,0.202-0.136,0.343-0.622,0.375c-0.061,0.004-0.117,0.046-0.131,0.104l-0.246,0.726
		c-0.022,0.046-0.014,0.1,0.017,0.138c0.029,0.039,0.075,0.063,0.126,0.063h0.886c1.681,0,2.646,0.053,3.503,0.099
		c0.615,0.032,1.142,0.061,1.81,0.061c3.531,0,6.191-2.813,6.191-6.546C99.888,13.452,97.102,11.137,92.242,11.137z M90.83,12.393
		c0.233-0.01,0.477-0.01,0.719-0.01c1.351,0,5.742,0.391,5.742,5.444c0,2.856-1.71,4.853-4.164,4.853
		c-1.453,0-2.288-0.248-2.298-0.685c-0.039-1.117-0.053-2.186-0.053-3.262C90.777,16.797,90.818,13.16,90.83,12.393z"/>
	<path fill="#312926" d="M62.546,22.267c-0.036-0.015-0.036-0.017-0.428-0.017c-0.372,0-0.916,0.005-1.088,0.005h-0.048
		c-0.741,0.002-1.558,0.036-2.417,0.106c-0.071,0.003-0.151,0.005-0.224,0.008c-0.095,0.007-0.187,0.014-0.304,0.009h-1.112
		c0-0.243,0.007-0.481,0.015-0.711c0.021-0.306,0.031-0.59,0.029-0.889c-0.007-0.872-0.015-1.984-0.022-2.913
		c0.211,0.012,0.559,0.032,0.95,0.048l1.751,0.095c0.071,0,0.134-0.039,0.155-0.104l0.489-1.418c0.017-0.049,0.012-0.104-0.02-0.143
		c-0.031-0.039-0.084-0.066-0.13-0.061l-2.245,0.102c-0.396,0.019-0.745,0.039-0.957,0.051c0.014-1.193,0.029-2.415,0.031-3.265
		c0.022-0.387,0.109-0.528,0.359-0.588l0.042-0.007c0.024-0.003,0.049-0.01,0.07-0.01c0.109-0.012,0.236-0.01,0.384,0
		c0.774,0.077,1.959,0.17,3.165,0.17c0.061,0.004,0.229,0.004,0.353,0.004c0.128,0,0.153,0,0.191-0.017
		c0.039-0.014,0.066-0.048,0.08-0.087l0.508-1.472c0.02-0.054,0.005-0.109-0.024-0.148c-0.032-0.041-0.085-0.063-0.136-0.058
		c-0.012,0.002-1.579,0.179-4.253,0.179h-4.302c-0.046,0-0.09,0.022-0.121,0.063c-0.03,0.039-0.039,0.092-0.022,0.136l0.287,0.854
		c0.022,0.059,0.075,0.1,0.133,0.102c0.438,0.029,0.651,0.146,0.755,0.409c0.008,0.138,0.02,0.291,0.022,0.458
		c0.024,0.544,0.061,2.218,0.08,3.505c-0.01,0.522-0.017,1.297-0.026,2.091c-0.013,0.711-0.022,1.443-0.03,2.019
		c0,0,0,0.014,0,0.022c-0.004,0.644-0.026,1.209-0.048,1.669c-0.027,0.169-0.125,0.33-0.629,0.367
		c-0.061,0.002-0.112,0.043-0.131,0.102l-0.245,0.726c-0.017,0.042-0.01,0.095,0.022,0.136c0.031,0.039,0.077,0.066,0.121,0.066
		h0.87c0,0,0.007,0,0.017,0l3.44,0.048h2.259c1.154,0.051,1.797,0.122,1.802,0.124c0.005,0,0.007,0,0.017,0
		c0.061,0,0.126-0.039,0.143-0.104l0.51-1.474C62.656,22.381,62.622,22.296,62.546,22.267z"/>
	<path fill="#312926" d="M86.028,22.267c-0.031-0.015-0.031-0.017-0.425-0.017c-0.372,0-0.911,0.005-1.086,0.005h-0.056
		c-0.733,0.002-1.547,0.036-2.409,0.106c-0.071,0.003-0.143,0.005-0.221,0.008c-0.102,0.007-0.189,0.012-0.313,0.009H80.41
		c0-0.243,0.012-0.481,0.021-0.711c0.01-0.306,0.03-0.59,0.017-0.889c-0.007-0.872-0.009-1.984-0.017-2.913
		c0.211,0.012,0.554,0.032,0.945,0.048l1.761,0.095c0.063,0,0.128-0.039,0.158-0.104l0.483-1.418
		c0.014-0.049,0.005-0.104-0.019-0.143c-0.037-0.039-0.078-0.066-0.139-0.061l-2.244,0.102c-0.394,0.019-0.746,0.039-0.947,0.051
		c0.01-1.193,0.019-2.415,0.024-3.265c0.02-0.387,0.107-0.528,0.365-0.588l0.041-0.007c0.027-0.008,0.044-0.01,0.068-0.01
		c0.117-0.012,0.243-0.01,0.387,0c0.779,0.077,1.96,0.17,3.165,0.17c0.061,0.004,0.229,0.004,0.345,0.004
		c0.134,0,0.163,0,0.194-0.017c0.039-0.014,0.073-0.048,0.087-0.087l0.505-1.472c0.015-0.054,0.007-0.109-0.027-0.148
		c-0.029-0.041-0.085-0.063-0.141-0.058c-0.012,0.002-1.572,0.179-4.253,0.179h-4.294c-0.049,0-0.097,0.022-0.129,0.063
		c-0.024,0.039-0.032,0.092-0.017,0.136l0.287,0.854c0.021,0.059,0.07,0.1,0.14,0.102c0.433,0.029,0.642,0.146,0.746,0.409
		c0.007,0.138,0.021,0.291,0.026,0.458c0.022,0.544,0.056,2.179,0.083,3.505c-0.008,0.539-0.022,1.338-0.032,2.16
		c-0.012,0.689-0.017,1.392-0.029,1.95c0,0,0,0.017,0,0.024c-0.01,0.656-0.027,1.222-0.048,1.667
		c-0.029,0.169-0.119,0.33-0.627,0.367c-0.061,0.002-0.112,0.043-0.136,0.102l-0.243,0.726c-0.015,0.042-0.008,0.095,0.022,0.136
		c0.026,0.039,0.077,0.066,0.126,0.066h0.865c0,0,0.014,0,0.017,0l3.444,0.048h2.262c1.149,0.051,1.785,0.122,1.791,0.124
		c0.007,0,0.017,0,0.017,0c0.073,0,0.126-0.039,0.151-0.104l0.505-1.474C86.137,22.381,86.106,22.296,86.028,22.267z"/>
	<path fill="#312926" d="M128.58,11.897l-0.235-0.826c-0.017-0.066-0.08-0.112-0.148-0.112h-1.081l0,0
		c-0.015-0.002-0.022-0.002-0.022-0.002h-2.273c0,0-0.017,0-0.03,0.002h-5.519c-0.068,0-0.126,0.046-0.148,0.112L118.9,11.87
		c-0.01,0.01-0.01,0.02-0.012,0.032l-0.394,1.459c-0.017,0.051,0,0.109,0.039,0.146c0.039,0.041,0.09,0.058,0.146,0.043l0.979-0.248
		c0.058-0.012,0.111-0.063,0.119-0.124c0,0,0.106-0.603,0.801-0.678c0.058,0,0.121-0.002,0.213-0.012h0.226
		c0.178,0,0.192,0,0.615,0.005h0.515c0.122,0,0.241,0,0.345,0.007c0.022,0.675,0.085,3.571,0.085,4.686v5.461
		c-0.029,0.202-0.138,0.342-0.626,0.376c-0.059,0-0.112,0.044-0.131,0.102l-0.248,0.724c-0.015,0.048-0.008,0.1,0.021,0.141
		c0.027,0.037,0.078,0.059,0.124,0.059h2.062c0.031,0.004,0.07,0.004,0.104,0.004l0.464-0.004c0.007,0.004,0.015,0.004,0.027,0.004
		h1.596c0,0.003,0.005,0.003,0.005,0c0.085,0,0.15-0.065,0.15-0.15c0-0.034-0.007-0.06-0.027-0.087l-0.229-0.688
		c-0.021-0.059-0.08-0.097-0.138-0.105c-0.498-0.031-0.598-0.191-0.617-0.35c-0.191-2.019-0.191-4.027-0.191-5.968
		c0-0.845,0.051-3.546,0.06-4.211c0.105,0,0.219-0.005,0.329-0.005h0.522c0.417-0.003,0.435-0.003,0.612-0.003l0.243,0.003
		c0.073,0.005,0.139,0.009,0.189,0.012c0.7,0.075,0.804,0.656,0.812,0.678c0.002,0.059,0.056,0.11,0.111,0.122l0.986,0.248
		c0.046,0.012,0.102-0.002,0.144-0.043c0.039-0.037,0.053-0.095,0.039-0.146L128.58,11.897z"/>
</g>
<path fill="#E2203D" d="M6.953,11.13c0.022,0.039,0.053,0.065,0.097,0.073l4.992,1.001c0.007,0.004,0.017,0.007,0.017,0.007
	c0.043,0,0.075-0.015,0.102-0.037c0.029-0.033,0.044-0.075,0.032-0.119l-0.999-4.997c-0.005-0.041-0.039-0.075-0.075-0.092
	L4.305,4.154c-0.012-0.008-0.029-0.01-0.049-0.01c-0.029,0-0.065,0.012-0.089,0.037C4.135,4.214,4.121,4.27,4.143,4.316L6.953,11.13
	z M34.738,22.24c-0.372-1.669-1.163-3.243-2.286-4.545c-0.048-0.063-0.073-0.133-0.073-0.207c0-0.087,0.037-0.17,0.085-0.235
	c1.093-1.271,1.865-2.796,2.244-4.409c0.036-0.158,0.075-0.321,0.107-0.486c0.111-0.624,0.167-1.266,0.167-1.902
	c0-2.789-1.088-5.414-3.058-7.384c-1.978-1.975-4.596-3.061-7.382-3.061c-0.634,0-1.275,0.056-1.895,0.17
	c-0.153,0.029-0.312,0.063-0.459,0.094c-1.487,0.343-2.854,0.991-4.059,1.934c-0.262,0.169-0.566,0.257-0.867,0.257
	c-0.229,0-0.45-0.046-0.654-0.138l-4.266-2.301c-0.026-0.012-0.046-0.017-0.065-0.017c-0.027,0-0.051,0.007-0.073,0.022
	c-0.041,0.034-0.063,0.083-0.046,0.128l1.95,9.755l0.953,4.749v0.015c0.007,0.027,0.007,0.044,0.007,0.061
	c0,0.192-0.158,0.352-0.35,0.352c-0.027,0-0.044-0.002-0.068-0.01h-0.012l-14.49-2.915c-0.012,0-0.014-0.002-0.024-0.002
	c-0.043,0-0.075,0.02-0.106,0.054c-0.025,0.036-0.025,0.089-0.008,0.133l2.706,5.023c0.015,0.041,0.024,0.083,0.024,0.126
	c0,0.058-0.01,0.109-0.032,0.152l-2.699,5.006c-0.019,0.042-0.017,0.092,0.008,0.134c0.024,0.032,0.063,0.051,0.102,0.051
	c0.007,0,0.017,0,0.029-0.004l14.529-2.906c0.014-0.005,0.031-0.005,0.041-0.005c0.192,0,0.35,0.158,0.35,0.353
	c0,0.003,0,0.003,0,0.003v0.009l-0.959,4.776l-1.95,9.774c-0.017,0.046,0.005,0.097,0.046,0.129C12.229,34.993,12.253,35,12.28,35
	c0.019,0,0.039-0.005,0.056-0.015l4.268-2.291c0.219-0.102,0.45-0.153,0.688-0.153c0.367,0,0.707,0.116,0.989,0.335
	c0.002,0.002,0.005,0.002,0.01,0.007c1.13,0.843,2.385,1.436,3.746,1.773c0.201,0.049,0.403,0.09,0.612,0.129
	c0.617,0.114,1.253,0.172,1.897,0.172c2.786,0,5.404-1.086,7.382-3.059c1.97-1.972,3.058-4.596,3.058-7.387
	c0-0.617-0.051-1.236-0.16-1.844C34.799,22.539,34.772,22.396,34.738,22.24z M24.544,28.293c-2.036,0-3.678-1.647-3.678-3.672
	c0-2.023,1.642-3.673,3.678-3.673c2.019,0,3.668,1.65,3.668,3.673C28.212,26.646,26.562,28.293,24.544,28.293z M25.107,14.086
	c-0.19,0.029-0.384,0.044-0.563,0.044c-0.197,0-0.387-0.015-0.576-0.044c-1.799-0.279-3.102-1.807-3.102-3.629
	c0-2.023,1.642-3.67,3.678-3.67c2.019,0,3.668,1.646,3.668,3.67C28.212,12.279,26.91,13.807,25.107,14.086z M12.189,22.938
	c0-0.068-0.061-0.125-0.131-0.125l0,0h-0.002l0,0l0,0c0,0-0.015,0-0.022,0.003L7.05,23.81c-0.044,0.007-0.075,0.036-0.097,0.075
	l-2.81,6.809c-0.022,0.048-0.008,0.102,0.024,0.138c0.024,0.024,0.061,0.037,0.089,0.037c0.02,0,0.037-0.005,0.049-0.009
	l6.806-2.804c0.042-0.017,0.063-0.053,0.078-0.094l0.994-4.99C12.183,22.959,12.189,22.947,12.189,22.938z"/>
<g>
	<path fill="#312926" d="M141.703,24.137c-1.407,0-2.389-0.288-2.56-0.341V14.32l-1.123-0.281v-0.708l2.454-0.068v4.064l0.288-0.2
		c0.607-0.423,1.23-0.638,1.854-0.638c1.878,0,2.911,1.284,2.911,3.614C145.525,22.591,144.061,24.137,141.703,24.137z
		 M142.334,17.54c-1.133,0-1.72,0.74-1.827,0.888l-0.034,0.048v4.468l0.141,0.033c0.173,0.041,0.572,0.109,1.299,0.109
		c1.425,0,2.211-1.01,2.211-2.843C144.125,18.5,143.489,17.54,142.334,17.54z"/>
	<path fill="#312926" d="M146.795,23.996v-0.708l1.193-0.352v-5.249l-1.193-0.28V16.7l2.248-0.069l0.129,1.053l0.264-0.258
		c0.356-0.35,1.075-0.937,1.884-0.937c0.595,0,1.086,0.152,1.227,0.2l-0.068,1.974h-0.848l-0.212-1.057l-0.158,0.009
		c-0.971,0.051-1.608,0.688-1.902,1.064l-0.04,0.049v4.21l1.403,0.351v0.707H146.795z"/>
	<path fill="#312926" d="M155.464,24.137c-1.315,0-2.069-0.755-2.069-2.07c0-1.459,1.014-2.139,3.191-2.139h1.16V18.77
		c0-0.838-0.487-1.3-1.37-1.3c-0.656,0-1.157,0.128-1.343,0.184l-0.106,0.032l-0.195,1.047h-0.848l-0.068-1.694
		c0.315-0.109,1.642-0.55,2.7-0.55c1.771,0,2.56,0.66,2.56,2.14v4.31l1.122,0.28v0.708l-2.113,0.068l-0.3-1.003l-0.214,0.194
		C157.093,23.62,156.34,24.137,155.464,24.137z M156.727,20.768c-1.402,0-1.973,0.355-1.973,1.228c0,0.662,0.416,1.09,1.061,1.09
		c0.923,0,1.679-0.837,1.889-1.094l0.042-0.051v-1.173H156.727z"/>
	<path fill="#312926" d="M166.242,23.996v-0.71l0.912-0.352V19.12c0-1.044-0.4-1.509-1.299-1.509c-1.078,0-1.879,0.912-2.029,1.094
		l-0.042,0.051v4.179l0.912,0.352v0.71h-3.436v-0.708l1.192-0.351v-5.249l-1.192-0.28V16.7l2.248-0.069l0.129,1.02l0.253-0.195
		c0.374-0.291,1.354-0.966,2.387-0.966c1.445,0,2.209,0.862,2.209,2.492v3.955l1.053,0.351v0.709H166.242z"/>
	<path fill="#312926" d="M173.578,24.137c-1.878,0-2.912-1.283-2.912-3.613c0-2.526,1.377-4.035,3.683-4.035
		c0.385,0,0.766,0.056,1.136,0.165l0.234,0.068V14.32l-1.194-0.28v-0.708l2.525-0.069v9.675l1.193,0.28v0.708l-2.319,0.068
		l-0.114-0.821l-0.254,0.216C174.977,23.885,174.311,24.137,173.578,24.137z M174.209,17.54c-1.421,0-2.142,0.958-2.142,2.843
		c0,1.744,0.635,2.703,1.791,2.703c1.081,0,1.713-0.858,1.83-1.031l0.031-0.046v-4.18l-0.11-0.047
		C175.44,17.708,174.967,17.54,174.209,17.54z"/>
	<path fill="#312926" d="M185.935,24.137c-2.207,0-3.472-1.394-3.472-3.824c0-2.288,1.451-3.824,3.612-3.824
		c1.149,0,2.158,0.457,2.349,0.548l-0.069,1.837h-0.847l-0.208-1.19l-0.123-0.025c-0.217-0.044-0.657-0.12-1.172-0.12
		c-0.977,0-2.141,0.457-2.141,2.633c0,1.851,0.806,2.914,2.211,2.914c1.187,0,1.985-0.656,2.167-0.82l0.453,0.776
		C188.513,23.196,187.351,24.137,185.935,24.137z"/>
	<path fill="#312926" d="M189.623,23.996v-0.708l1.193-0.352v-5.249l-1.193-0.28V16.7l2.248-0.069l0.13,1.053l0.263-0.258
		c0.357-0.35,1.075-0.937,1.885-0.937c0.596,0,1.087,0.153,1.226,0.2l-0.067,1.974h-0.847l-0.212-1.057l-0.158,0.009
		c-0.969,0.051-1.609,0.688-1.904,1.064l-0.039,0.05v4.21l1.404,0.351v0.707H189.623z"/>
	<path fill="#312926" d="M198.292,24.137c-1.315,0-2.068-0.755-2.068-2.07c0-1.459,1.014-2.139,3.19-2.139h1.16V18.77
		c0-0.838-0.487-1.3-1.37-1.3c-0.656,0-1.157,0.128-1.342,0.184l-0.107,0.032l-0.194,1.047h-0.849l-0.067-1.693
		c0.314-0.109,1.639-0.551,2.7-0.551c1.771,0,2.56,0.66,2.56,2.14v4.31l1.123,0.28v0.708l-2.113,0.068l-0.301-1.003l-0.214,0.194
		C199.922,23.62,199.169,24.137,198.292,24.137z M199.555,20.768c-1.4,0-1.973,0.355-1.973,1.228c0,0.662,0.417,1.09,1.061,1.09
		c0.924,0,1.68-0.837,1.89-1.094l0.041-0.051v-1.173H199.555z"/>
	<path fill="#312926" d="M204.577,23.996v-0.708l1.194-0.352V17.68h-1.264v-0.843l1.264-0.141v-0.874
		c0-1.717,0.932-2.702,2.56-2.702c1.216,0,1.955,0.408,2.069,0.476v1.698h-0.916l-0.21-1.12l-0.128-0.019
		c-0.132-0.021-0.406-0.054-0.745-0.054c-0.898,0-1.299,0.444-1.299,1.44v1.16h1.851l-0.038,0.979h-1.813v5.258l1.361,0.351v0.707
		H204.577z"/>
	<path fill="#312926" d="M212.965,24.137c-0.719,0-1.577-0.347-1.577-1.999V17.68h-1.405v-0.842l1.405-0.141v-1.772l1.331-0.265
		v2.041h2.034v0.979h-2.034v4.542c0,0.584,0.255,0.892,0.738,0.892c0.293,0,0.656-0.113,1.079-0.337l0.348,0.683
		C214.254,23.916,213.626,24.137,212.965,24.137z"/>
	<path fill="#312926" d="M219.144,24.137c-2.118,0-3.333-1.368-3.333-3.754c0-2.256,1.431-3.894,3.403-3.894
		c1.958,0,2.91,1.067,2.91,3.263c0,0.292-0.049,0.611-0.064,0.708l-4.852,0.029l0.007,0.188c0.052,1.464,0.864,2.411,2.069,2.411
		c1.257,0,2.173-0.627,2.348-0.755l0.451,0.671C221.9,23.158,220.683,24.137,219.144,24.137z M219.144,17.512
		c-1.18,0-1.732,0.923-1.856,1.787l-0.029,0.208h3.456l-0.007-0.189C220.663,18.153,220.109,17.512,219.144,17.512z"/>
	<path fill="#312926" d="M223.254,23.996v-0.708l1.192-0.352v-5.249l-1.192-0.28V16.7l2.247-0.069l0.13,1.053l0.263-0.258
		c0.356-0.35,1.074-0.937,1.885-0.937c0.595,0,1.087,0.153,1.226,0.2l-0.068,1.974h-0.847l-0.213-1.057l-0.156,0.009
		c-0.969,0.051-1.609,0.688-1.904,1.064l-0.039,0.05v4.21l1.404,0.351v0.707H223.254z"/>
	<path fill="#312926" d="M231.935,24.142c-0.998,0-1.897-0.258-2.054-0.306l-0.013-2.013h0.913l0.154,1.202l0.125,0.028
		c0.18,0.04,0.544,0.106,0.978,0.106c0.054,0,0.11-0.001,0.166-0.003c0.481-0.016,0.857-0.101,1.115-0.254
		c0.322-0.189,0.477-0.489,0.464-0.891c-0.025-0.702-0.805-0.953-1.63-1.219c-1.061-0.341-2.262-0.727-2.286-2.121
		c-0.013-0.684,0.229-1.244,0.702-1.622c0.44-0.352,1.073-0.545,1.83-0.56h0.053c0.984,0,2.098,0.343,2.309,0.411l-0.04,1.833
		h-0.848l-0.223-1.089l-0.107-0.03c-0.155-0.044-0.561-0.146-1.013-0.146c-0.04,0-0.079,0-0.12,0.002
		c-0.842,0.037-1.239,0.357-1.214,0.978c0.026,0.702,0.821,0.968,1.661,1.25c1.048,0.35,2.232,0.746,2.255,2.046
		c0.024,1.412-1.098,2.328-2.928,2.393C232.102,24.141,232.019,24.142,231.935,24.142z"/>
</g>
<polygon fill="#312926" points="132.688,11.144 133.295,14.21 133.994,14.21 133.994,11.144 "/>
</svg>
