<svg version="1.1" id="Layer_1" xmlns="http://www.w3.org/2000/svg" xmlns:xlink="http://www.w3.org/1999/xlink" x="0px" y="0px"
	 width="57.746px" height="36.172px" viewBox="0 0 57.746 36.172" enable-background="new 0 0 57.746 36.172" xml:space="preserve">
<g>
	<g>
		<g>
			<g>
				<path fill="#662D91" d="M45.012,10.705c-0.818,0-1.617,0.086-2.393,0.232C40.293,4.561,34.193,0,27.012,0
					c-9.164,0-16.596,7.414-16.623,16.574c-0.191-0.012-0.381-0.029-0.576-0.029C4.393,16.545,0,20.938,0,26.357
					s4.393,9.814,9.812,9.814h35.201c7.033,0,12.732-5.699,12.732-12.732S52.045,10.705,45.012,10.705z M35.586,18.369
					c0,0.08-0.031,0.154-0.086,0.211L24.475,29.604c-0.287,0.287-0.67,0.447-1.078,0.447s-0.791-0.16-1.08-0.447l-5.211-5.211
					c-0.289-0.287-0.447-0.672-0.447-1.08c0-0.41,0.158-0.791,0.447-1.08l11.023-11.023c0.057-0.055,0.131-0.088,0.211-0.088h6.949
					c0.164,0,0.297,0.133,0.297,0.297V18.369z"/>
			</g>
		</g>
		<g>
			<path fill="#662D91" d="M29.281,14.846c-0.697,0.693-0.697,1.824,0,2.516c0.695,0.699,1.822,0.699,2.52,0
				c0.695-0.691,0.695-1.822,0-2.516C31.104,14.146,29.977,14.146,29.281,14.846z"/>
		</g>
	</g>
</g>
</svg>
