<svg version="1.1" id="Layer_1" xmlns="http://www.w3.org/2000/svg" xmlns:xlink="http://www.w3.org/1999/xlink" x="0px" y="0px"
	 width="59.959px" height="60.035px" viewBox="0 0 59.959 60.035" enable-background="new 0 0 59.959 60.035" xml:space="preserve">
<g>
	<path fill="#C6BFAE" d="M58.225,11.281c-2.154,0-3.906-1.752-3.906-3.906s1.752-3.906,3.906-3.906c0.959,0,1.734-0.775,1.734-1.734
		S59.184,0,58.225,0H7.375C3.309,0,0,3.309,0,7.375v9.914v20.67v14.663c0,4.066,3.309,7.375,7.375,7.375h16.494h34.355
		c0.959,0,1.734-0.775,1.734-1.734V13.016C59.959,12.057,59.184,11.281,58.225,11.281z M7.375,3.469h44.619
		c-0.715,1.135-1.145,2.469-1.145,3.906c0,1.438,0.43,2.771,1.145,3.906H7.375c-2.154,0-3.905-1.752-3.905-3.906
		S5.221,3.469,7.375,3.469z M56.49,56.528H23.869H7.375c-0.686,0-1.32-0.193-1.881-0.505V14.477c0.604,0.16,1.228,0.273,1.881,0.273
		H56.49V56.528z"/>
	<path fill="#C6BFAE" d="M28.504,44.059c-0.857,0.271-1.711,0.545-2.561,0.852v2.971h10.753c5.528,0,8.872-2.05,8.872-7.067
		c0-2.629-1.67-4.54-4.878-5.462c2.693-0.855,4.096-2.662,4.096-5.633c0-4.029-3.073-5.906-7.511-5.906h-3.584l-7.748,0.17v2.834
		l2.561,1.023V44.059z M33.691,27.84h2.9c1.643,0,2.902,0.855,2.902,2.631c0,2.115-1.331,3.174-3.821,3.174h-1.981V27.84z
		 M33.691,37.229h1.981c3.073,0,4.503,1.094,4.503,3.585c0,1.878-1.264,3.073-3.652,3.073h-2.832V37.229z"/>
	<polygon fill="#C6BFAE" points="17.853,42.322 21.085,42.322 21.085,37.193 25.943,37.193 25.943,34.328 21.085,34.328 
		21.085,29.371 17.853,29.371 17.853,34.328 12.943,34.328 12.943,37.193 17.853,37.193 	"/>
</g>
</svg>
