<?xml version="1.0" encoding="utf-8"?>
<!-- Generator: Adobe Illustrator 16.0.0, SVG Export Plug-In . SVG Version: 6.00 Build 0)  -->
<!DOCTYPE svg PUBLIC "-//W3C//DTD SVG 1.1//EN" "http://www.w3.org/Graphics/SVG/1.1/DTD/svg11.dtd">
<svg version="1.1" id="Layer_1" xmlns="http://www.w3.org/2000/svg" xmlns:xlink="http://www.w3.org/1999/xlink" x="0px" y="0px"
	 width="59.959px" height="60.035px" viewBox="0 0 59.959 60.035" enable-background="new 0 0 59.959 60.035" xml:space="preserve">
<path fill="#E2203D" d="M47.422,37.737l12.042-12.99c0.521-0.562,0.611-1.399,0.222-2.06c-0.388-0.656-1.157-0.982-1.908-0.803
	l-10.985,2.703V8.715c0-4.782-3.89-8.671-8.671-8.671H21.839c-4.781,0-8.672,3.889-8.672,8.671v15.873L2.182,21.885
	c-0.746-0.183-1.521,0.146-1.909,0.803c-0.388,0.66-0.299,1.497,0.223,2.06l12.042,12.99L0.495,50.728
	c-0.518,0.559-0.609,1.389-0.229,2.049c0.381,0.657,1.149,0.985,1.892,0.819l26.087-6.053V54.5H14.901
	c-0.958,0-1.734,0.776-1.734,1.734v2.022c0,0.959,0.776,1.734,1.734,1.734h30.156c0.959,0,1.734-0.775,1.734-1.734v-2.022
	c0-0.958-0.775-1.734-1.734-1.734H31.714v-6.957l26.087,6.053c0.13,0.027,0.261,0.044,0.392,0.044c0.607,0,1.185-0.321,1.501-0.863
	c0.382-0.66,0.289-1.49-0.229-2.049L47.422,37.737z M20.492,3.709V6.98h-3.538C17.523,5.386,18.841,4.156,20.492,3.709z
	 M16.636,10.449h3.856v3.47h-3.856V10.449z M16.636,17.387h3.856v3.469h-3.856V17.387z M16.636,24.323h3.856v2.063l-3.856-0.949
	V24.323z M6.975,26.634l6.192,1.523v5.159L6.975,26.634z M6.884,48.938l6.879-7.421c0.816,2.123,2.437,3.841,4.496,4.779
	L6.884,48.938z M28.245,43.624h-6.406c-2.51,0-4.611-1.785-5.097-4.152h11.503V43.624z M28.245,36.003H16.636v-6.992l11.609,2.853
	V36.003z M28.245,28.293L23.96,27.24v-2.917h4.285V28.293z M28.245,20.855H23.96v-3.469h4.285V20.855z M28.245,13.919H23.96v-3.47
	h4.285V13.919z M28.245,6.98H23.96V3.513h4.285V6.98z M46.792,28.157l6.192-1.523l-6.192,6.683V28.157z M39.462,3.709
	c1.653,0.443,2.973,1.673,3.544,3.271h-3.544V3.709z M39.462,10.449h3.861v3.47h-3.861V10.449z M39.462,17.387h3.861v3.469h-3.861
	V17.387z M39.462,24.323h3.861v1.114l-3.861,0.952V24.323z M31.714,3.513h4.28V6.98h-4.28V3.513z M31.714,10.449h4.28v3.47h-4.28
	V10.449z M31.714,17.387h4.28v3.469h-4.28V17.387z M31.714,24.323h4.28v2.92l-4.28,1.05V24.323z M31.714,31.863l11.609-2.853v6.992
	H31.714V31.863z M31.714,43.624v-4.152h11.503c-0.487,2.367-2.586,4.152-5.096,4.152H31.714z M41.699,46.297
	c2.062-0.938,3.681-2.656,4.497-4.779l6.879,7.421L41.699,46.297z"/>
</svg>
