<?xml version="1.0" encoding="utf-8"?>
<!-- Generator: Adobe Illustrator 16.0.0, SVG Export Plug-In . SVG Version: 6.00 Build 0)  -->
<!DOCTYPE svg PUBLIC "-//W3C//DTD SVG 1.1//EN" "http://www.w3.org/Graphics/SVG/1.1/DTD/svg11.dtd">
<svg version="1.1" id="Layer_1" xmlns="http://www.w3.org/2000/svg" xmlns:xlink="http://www.w3.org/1999/xlink" x="0px" y="0px"
	 width="34.535px" height="34.582px" viewBox="0 0 34.535 34.582" enable-background="new 0 0 34.535 34.582" xml:space="preserve">
<path fill="#662D91" d="M33.535,32.574H1c-0.553,0-1,0.447-1,1s0.447,1,1,1h32.535c0.553,0,1-0.447,1-1S34.088,32.574,33.535,32.574
	z M17.759,5.846c-1.985,0-3.601,1.615-3.601,3.602c0,0.553,0.447,1,1,1s1-0.447,1-1c0-0.883,0.718-1.602,1.601-1.602
	s1.602,0.719,1.602,1.602v15.334c0,0.553,0.447,1,1,1s1-0.447,1-1V9.447C21.36,7.461,19.745,5.846,17.759,5.846z M11.632,5.846
	c-0.553,0-1,0.447-1,1c0,0.77-0.431,1.434-1.059,1.787V6.139c0-0.553-0.447-1-1-1s-1,0.447-1,1v2.494
	C6.945,8.279,6.515,7.615,6.515,6.846c0-0.553-0.447-1-1-1s-1,0.447-1,1c0,1.227,0.558,2.314,1.42,3.059
	c-0.752,0.65-1.255,1.562-1.374,2.602c-0.018,0.076-0.046,0.148-0.046,0.23v12.045c0,0.553,0.447,1,1,1s1-0.447,1-1V12.965
	c0-0.771,0.431-1.438,1.059-1.791v13.607c0,0.553,0.447,1,1,1s1-0.447,1-1V11.174c0.628,0.354,1.059,1.02,1.059,1.791v11.816
	c0,0.553,0.447,1,1,1s1-0.447,1-1V12.736c0-0.082-0.028-0.154-0.046-0.23c-0.119-1.039-0.622-1.951-1.374-2.602
	c0.862-0.744,1.42-1.832,1.42-3.059C12.632,6.293,12.185,5.846,11.632,5.846z M29.535,0.008H5c-2.757,0-5,2.242-5,5v20.904
	c0,2.756,2.243,5,5,5h24.535c2.757,0,5-2.244,5-5V5.008C34.535,2.25,32.292,0.008,29.535,0.008z M32.535,25.912c0,1.654-1.346,3-3,3
	H5c-1.654,0-3-1.346-3-3V5.008c0-1.654,1.346-3,3-3h24.535c1.654,0,3,1.346,3,3V25.912z M29.021,17.725c0.553,0,1-0.447,1-1
	s-0.447-1-1-1c-0.578,0-1.117,0.148-1.602,0.393v-6.67c0-1.986-1.615-3.602-3.602-3.602c-0.553,0-1,0.447-1,1s0.447,1,1,1
	c0.883,0,1.602,0.719,1.602,1.602v6.67c-0.484-0.244-1.023-0.393-1.602-0.393c-0.553,0-1,0.447-1,1s0.447,1,1,1
	c0.883,0,1.602,0.719,1.602,1.602v0.301c-0.484-0.244-1.023-0.393-1.602-0.393c-0.553,0-1,0.447-1,1s0.447,1,1,1
	c0.883,0,1.602,0.719,1.602,1.604v1.943c0,0.553,0.447,1,1,1s1-0.447,1-1v-1.943c0-0.885,0.719-1.604,1.602-1.604
	c0.553,0,1-0.447,1-1s-0.447-1-1-1c-0.578,0-1.117,0.148-1.602,0.393v-0.301C27.419,18.443,28.138,17.725,29.021,17.725z"/>
</svg>
