<?xml version="1.0" encoding="utf-8"?>
<!-- Generator: Adobe Illustrator 16.0.0, SVG Export Plug-In . SVG Version: 6.00 Build 0)  -->
<!DOCTYPE svg PUBLIC "-//W3C//DTD SVG 1.1//EN" "http://www.w3.org/Graphics/SVG/1.1/DTD/svg11.dtd">
<svg version="1.1" id="Layer_1" xmlns="http://www.w3.org/2000/svg" xmlns:xlink="http://www.w3.org/1999/xlink" x="0px" y="0px"
	 width="34.789px" height="34.789px" viewBox="0 0 34.789 34.789" enable-background="new 0 0 34.789 34.789" xml:space="preserve">
<g>
	<path fill="#ED1C24" d="M34.789,32.742c0,1.125-0.92,2.047-2.045,2.047H2.045C0.92,34.789,0,33.867,0,32.742V2.043
		C0,0.918,0.92,0,2.045,0h30.699c1.125,0,2.045,0.918,2.045,2.043V32.742z"/>
	<path fill="#FFFFFF" d="M17.865,7.334c-5.49,0-8.26,3.934-8.26,7.217c0,1.99,0.754,3.758,2.369,4.416
		c0.262,0.111,0.5,0.006,0.578-0.287c0.053-0.201,0.18-0.715,0.236-0.93c0.076-0.289,0.047-0.391-0.168-0.645
		c-0.465-0.547-0.764-1.26-0.764-2.266c0-2.92,2.188-5.535,5.691-5.535c3.105,0,4.811,1.898,4.811,4.43
		c0,3.332-1.477,6.145-3.666,6.145c-1.209,0-2.113-1-1.824-2.227c0.346-1.465,1.021-3.045,1.021-4.102
		c0-0.945-0.508-1.734-1.559-1.734c-1.238,0-2.23,1.277-2.23,2.99c0,1.092,0.371,1.828,0.371,1.828s-1.268,5.363-1.488,6.299
		c-0.441,1.869-0.066,4.162-0.035,4.393c0.02,0.139,0.195,0.17,0.275,0.066c0.113-0.148,1.586-1.967,2.086-3.781
		c0.143-0.516,0.814-3.178,0.814-3.178c0.4,0.766,1.574,1.439,2.82,1.439c3.717,0,6.236-3.387,6.236-7.918
		C25.182,10.525,22.279,7.334,17.865,7.334z"/>
</g>
</svg>
