<?xml version="1.0" encoding="utf-8"?>
<!-- Generator: Adobe Illustrator 16.0.0, SVG Export Plug-In . SVG Version: 6.00 Build 0)  -->
<!DOCTYPE svg PUBLIC "-//W3C//DTD SVG 1.1//EN" "http://www.w3.org/Graphics/SVG/1.1/DTD/svg11.dtd">
<svg version="1.1" id="Layer_1" xmlns="http://www.w3.org/2000/svg" xmlns:xlink="http://www.w3.org/1999/xlink" x="0px" y="0px"
	 width="34.789px" height="34.789px" viewBox="0 0 34.789 34.789" enable-background="new 0 0 34.789 34.789" xml:space="preserve">
<g>
	<path fill="#CFE4F6" d="M34.789,32.744c0,1.125-0.92,2.045-2.043,2.045H2.045C0.922,34.789,0,33.869,0,32.744V2.045
		C0,0.922,0.922,0,2.045,0h30.701c1.123,0,2.043,0.922,2.043,2.045V32.744z"/>
	<path id="Twitter_1_" fill="#27AAE1" d="M21.32,22.086h-3.914c-0.545,0-1.006-0.189-1.387-0.574
		c-0.383-0.383-0.572-0.846-0.572-1.391v-1.393h5.578c0.502,0,0.936-0.184,1.297-0.541c0.359-0.363,0.541-0.797,0.541-1.299
		c0-0.506-0.182-0.938-0.543-1.299c-0.361-0.359-0.795-0.541-1.301-0.541h-5.572v-4.328c0-0.543-0.195-1.01-0.58-1.398
		c-0.385-0.391-0.85-0.584-1.389-0.584c-0.555,0-1.027,0.193-1.41,0.57c-0.385,0.383-0.578,0.854-0.578,1.416v9.396
		c0,1.635,0.578,3.033,1.734,4.191c1.156,1.162,2.553,1.74,4.184,1.74h3.914c0.543,0,1.01-0.197,1.396-0.584
		c0.389-0.389,0.582-0.855,0.582-1.398c0-0.545-0.193-1.01-0.582-1.4C22.332,22.283,21.865,22.086,21.32,22.086z"/>
</g>
</svg>
