<?xml version="1.0" encoding="utf-8"?>
<!-- Generator: Adobe Illustrator 16.0.0, SVG Export Plug-In . SVG Version: 6.00 Build 0)  -->
<!DOCTYPE svg PUBLIC "-//W3C//DTD SVG 1.1//EN" "http://www.w3.org/Graphics/SVG/1.1/DTD/svg11.dtd">
<svg version="1.1" id="Layer_1" xmlns="http://www.w3.org/2000/svg" xmlns:xlink="http://www.w3.org/1999/xlink" x="0px" y="0px"
	 width="72.505px" height="72.426px" viewBox="0 0 72.505 72.426" enable-background="new 0 0 72.505 72.426" xml:space="preserve">
<path fill="#FFFFFF" d="M14.411,23.041c0.045,0.08,0.111,0.137,0.199,0.152l10.348,2.072c0.014,0.01,0.035,0.016,0.051,0.016
	c0.072,0,0.141-0.029,0.195-0.074c0.059-0.07,0.088-0.158,0.066-0.248L23.2,14.605c-0.012-0.086-0.08-0.156-0.158-0.193L8.921,8.584
	C8.899,8.568,8.864,8.562,8.823,8.562c-0.061,0-0.135,0.025-0.186,0.076c-0.066,0.07-0.096,0.188-0.051,0.283L14.411,23.041z
	 M71.993,46.068c-0.77-3.459-2.408-6.721-4.734-9.42c-0.1-0.131-0.15-0.277-0.15-0.428c0-0.182,0.072-0.354,0.176-0.488
	c2.264-2.633,3.865-5.795,4.652-9.137c0.074-0.326,0.154-0.664,0.221-1.006c0.232-1.295,0.348-2.623,0.348-3.943
	c0-5.779-2.256-11.221-6.338-15.303C62.069,2.25,56.642,0,50.868,0c-1.316,0-2.643,0.117-3.926,0.354
	c-0.318,0.061-0.646,0.129-0.951,0.195c-3.082,0.711-5.916,2.055-8.412,4.008c-0.545,0.352-1.174,0.533-1.801,0.533
	c-0.471,0-0.928-0.096-1.354-0.287l-8.84-4.768C25.532,0.01,25.489,0,25.45,0c-0.055,0-0.107,0.016-0.15,0.047
	c-0.086,0.07-0.131,0.17-0.096,0.266l4.043,20.217l1.973,9.842V30.4c0.016,0.057,0.016,0.092,0.016,0.127
	c0,0.398-0.328,0.729-0.729,0.729c-0.053,0-0.088-0.004-0.137-0.02c-0.012,0-0.025,0-0.025,0L0.313,25.195
	c-0.023,0-0.031-0.004-0.047-0.004c-0.092,0-0.156,0.039-0.223,0.111c-0.053,0.074-0.053,0.186-0.016,0.277l5.607,10.41
	c0.031,0.084,0.051,0.17,0.051,0.26c0,0.121-0.02,0.227-0.064,0.318L0.028,46.943c-0.043,0.086-0.037,0.191,0.016,0.277
	c0.051,0.064,0.131,0.105,0.211,0.105c0.016,0,0.035,0,0.059-0.01l30.111-6.021c0.029-0.01,0.064-0.01,0.082-0.01
	c0.4,0,0.729,0.326,0.729,0.73v0.004v0.02l-1.988,9.898l-4.043,20.256c-0.035,0.096,0.01,0.203,0.096,0.268
	c0.043,0.035,0.096,0.051,0.15,0.051c0.039,0,0.082-0.01,0.117-0.031l8.844-4.746c0.451-0.213,0.932-0.318,1.426-0.318
	c0.76,0,1.465,0.242,2.049,0.695c0.004,0.006,0.01,0.006,0.02,0.016c2.342,1.746,4.943,2.975,7.762,3.674
	c0.418,0.102,0.836,0.188,1.27,0.268c1.279,0.236,2.598,0.357,3.932,0.357c5.773,0,11.201-2.25,15.299-6.338
	c4.082-4.088,6.338-9.525,6.338-15.309c0-1.279-0.109-2.562-0.336-3.822C72.122,46.688,72.065,46.389,71.993,46.068z M50.868,58.611
	c-4.219,0-7.625-3.412-7.625-7.609c0-4.195,3.406-7.613,7.625-7.613c4.184,0,7.602,3.418,7.602,7.613
	C58.47,55.199,55.052,58.611,50.868,58.611z M52.034,29.168c-0.395,0.061-0.797,0.09-1.166,0.09c-0.408,0-0.801-0.029-1.193-0.09
	c-3.73-0.58-6.432-3.746-6.432-7.521c0-4.193,3.406-7.605,7.625-7.605c4.184,0,7.602,3.412,7.602,7.605
	C58.47,25.422,55.769,28.588,52.034,29.168z M25.263,47.512c0-0.141-0.123-0.256-0.27-0.256l0,0h-0.006l0,0l0,0
	c-0.021,0-0.029,0-0.045,0.004L14.61,49.318c-0.088,0.016-0.154,0.076-0.199,0.158L8.587,63.586
	c-0.045,0.102-0.016,0.211,0.051,0.287c0.051,0.051,0.125,0.074,0.186,0.074c0.041,0,0.076-0.01,0.098-0.02l14.109-5.809
	c0.084-0.035,0.127-0.111,0.158-0.197l2.061-10.34C25.249,47.557,25.263,47.533,25.263,47.512z"/>
</svg>
