<?xml version="1.0" encoding="utf-8"?>
<!-- Generator: Adobe Illustrator 16.0.0, SVG Export Plug-In . SVG Version: 6.00 Build 0)  -->
<!DOCTYPE svg PUBLIC "-//W3C//DTD SVG 1.1//EN" "http://www.w3.org/Graphics/SVG/1.1/DTD/svg11.dtd">
<svg version="1.1" id="Layer_1" xmlns="http://www.w3.org/2000/svg" xmlns:xlink="http://www.w3.org/1999/xlink" x="0px" y="0px"
	 width="34.789px" height="34.789px" viewBox="0 0 34.789 34.789" enable-background="new 0 0 34.789 34.789" xml:space="preserve">
<g>
	<path fill="#1C75BC" d="M34.789,32.746c0,1.125-0.92,2.043-2.047,2.043H2.045C0.92,34.789,0,33.871,0,32.746V2.047
		C0,0.922,0.92,0,2.045,0h30.697c1.127,0,2.047,0.922,2.047,2.047V32.746z"/>
	<path id="Facebook_1_" fill="#FFFFFF" d="M14.893,11.975c0,0.475,0,2.598,0,2.598h-1.904v3.182h1.904v8.725h3.914v-8.725h2.625
		c0,0,0.244-1.525,0.365-3.191c-0.342,0-2.977,0-2.977,0s0-1.85,0-2.176c0-0.324,0.426-0.762,0.85-0.762c0.42,0,1.309,0,2.131,0
		c0-0.43,0-1.928,0-3.309c-1.098,0-2.348,0-2.898,0C14.795,8.316,14.893,11.498,14.893,11.975z"/>
</g>
</svg>
