<?xml version="1.0" encoding="utf-8"?>
<!-- Generator: Adobe Illustrator 16.0.0, SVG Export Plug-In . SVG Version: 6.00 Build 0)  -->
<!DOCTYPE svg PUBLIC "-//W3C//DTD SVG 1.1//EN" "http://www.w3.org/Graphics/SVG/1.1/DTD/svg11.dtd">
<svg version="1.1" id="Layer_1" xmlns="http://www.w3.org/2000/svg" xmlns:xlink="http://www.w3.org/1999/xlink" x="0px" y="0px"
	 width="30.775px" height="30.775px" viewBox="0 0 30.775 30.775" enable-background="new 0 0 30.775 30.775" xml:space="preserve">
<path fill="#E2203D" d="M29.887,0H0.893C0.4,0,0,0.398,0,0.893v16.164v1.031c0,0.494,0.4,0.889,0.893,0.889h8.756l-1.551,4.117
	H5.152c-0.494,0-0.893,0.402-0.893,0.893s0.398,0.889,0.893,0.889h2.271L5.652,29.57c-0.172,0.461,0.059,0.975,0.518,1.146
	c0.105,0.041,0.213,0.059,0.314,0.059c0.361,0,0.699-0.221,0.834-0.576l2.01-5.324H14.5v5.01c0,0.49,0.398,0.891,0.889,0.891
	c0.492,0,0.889-0.4,0.889-0.891v-5.01h5.172l2.008,5.324c0.135,0.355,0.473,0.576,0.836,0.576c0.104,0,0.209-0.018,0.312-0.059
	c0.461-0.172,0.693-0.686,0.518-1.146l-1.771-4.695h2.275c0.494,0,0.893-0.398,0.893-0.889s-0.398-0.893-0.893-0.893h-2.943
	l-1.555-4.117h8.758c0.49,0,0.889-0.395,0.889-0.889v-1.031V0.893C30.775,0.398,30.377,0,29.887,0z M1.783,1.781h27.211v14.387
	H1.783V1.781z M10,23.094l1.551-4.117H14.5v4.117H10z M20.777,23.094h-4.5v-4.117h2.947L20.777,23.094z"/>
</svg>
