<?xml version="1.0" encoding="utf-8"?>
<!-- Generator: Adobe Illustrator 16.0.0, SVG Export Plug-In . SVG Version: 6.00 Build 0)  -->
<!DOCTYPE svg PUBLIC "-//W3C//DTD SVG 1.1//EN" "http://www.w3.org/Graphics/SVG/1.1/DTD/svg11.dtd">
<svg version="1.1" id="Layer_1" xmlns="http://www.w3.org/2000/svg" xmlns:xlink="http://www.w3.org/1999/xlink" x="0px" y="0px"
	 width="30.775px" height="30.775px" viewBox="0 0 30.775 30.775" enable-background="new 0 0 30.775 30.775" xml:space="preserve">
<path fill="#E2203D" d="M29.857,3.104h-2.267c-5.214-3.406-10.534-0.962-12.203-0.122c-0.483-0.242-0.821-0.614-1.885-0.947
	l-0.485-0.001c0-1.115-0.425-2.023-1.542-2.023H7.287c-0.015,0-0.022,0.007-0.035,0.007C7.227,0.018,7.2,0.011,7.177,0.011
	c-0.948,0-1.718,0.769-1.718,1.712c0,0.085,0.025,0.163,0.048,0.24c-0.78,0.272-1.56,0.639-2.326,1.14H0.918
	C0.409,3.104,0,3.514,0,4.02v24.538c0,0.505,0.409,0.916,0.918,0.916h12.045c0.444,0.779,1.366,1.302,2.425,1.302
	c1.057,0,1.979-0.523,2.423-1.302h12.047c0.508,0,0.918-0.41,0.918-0.916V4.02C30.775,3.514,30.365,3.104,29.857,3.104z
	 M28.938,6.762v19.181c-4.817-4.256-10.048-2.658-12.633-1.573V4.562C18.062,3.666,24.065,0.952,28.938,6.762z M14.47,4.564v19.804
	c-2.585-1.084-7.813-2.68-12.633,1.574V6.77c1.768-2.11,3.748-3.106,5.64-3.461v9.243c0,0.507,0.412,0.917,0.919,0.917h3.702
	c0.509,0,0.92-0.41,0.92-0.917l0.485-8.616C14.129,4.165,14.139,4.396,14.47,4.564z M11.478,1.843c0.104,0,0.188,0.086,0.188,0.191
	v9.602H9.313V2.034c0-0.064-0.003-0.128-0.009-0.191H11.478z M17.169,27.641c-0.465,0-0.857,0.348-0.912,0.808
	c-0.026,0.233-0.394,0.495-0.869,0.495c-0.479,0-0.843-0.262-0.87-0.495c-0.056-0.459-0.445-0.808-0.912-0.808H3.95
	C9.165,24,14.635,27.481,14.913,27.649c0.041,0.023,0.084,0.027,0.127,0.045c0.056,0.023,0.111,0.049,0.171,0.061
	c0.062,0.011,0.117,0.008,0.177,0.008c0.059,0,0.114,0.003,0.174-0.008c0.062-0.012,0.116-0.037,0.172-0.061
	c0.042-0.017,0.087-0.021,0.128-0.045c0.278-0.167,5.749-3.648,10.963-0.008H17.169z"/>
</svg>
