<?xml version="1.0" encoding="utf-8"?>
<!-- Generator: Adobe Illustrator 16.0.0, SVG Export Plug-In . SVG Version: 6.00 Build 0)  -->
<!DOCTYPE svg PUBLIC "-//W3C//DTD SVG 1.1//EN" "http://www.w3.org/Graphics/SVG/1.1/DTD/svg11.dtd">
<svg version="1.1" id="Layer_1" xmlns="http://www.w3.org/2000/svg" xmlns:xlink="http://www.w3.org/1999/xlink" x="0px" y="0px"
	 width="49.667px" height="45.976px" viewBox="0 0 49.667 45.976" enable-background="new 0 0 49.667 45.976" xml:space="preserve">
<g>
	<path fill="#EC8377" d="M13.854,6.929L13.854,6.929C13.854,3.103,10.753,0,6.925,0C3.101,0-0.001,3.103-0.001,6.928v0.001H13.854z"
		/>
	<path fill="#BA1F35" d="M42.737,0H6.925c3.828,0,6.93,3.103,6.93,6.928v0.001v35.811h35.812V6.928C49.667,3.103,46.563,0,42.737,0z
		"/>
	<g>
		<rect x="13.854" y="38.812" fill="#BA1F35" width="7.162" height="7.163"/>
		<rect x="28.179" y="38.812" fill="#BA1F35" width="7.162" height="7.163"/>
		<rect x="42.505" y="38.812" fill="#BA1F35" width="7.162" height="7.163"/>
	</g>
	<g>
		<path fill="#F4EDDA" d="M31.761,18.782c-0.336,0-0.607-0.271-0.607-0.607v-3.228c0-0.336,0.271-0.607,0.607-0.607
			c0.334,0,0.607,0.271,0.607,0.607v3.228C32.368,18.511,32.095,18.782,31.761,18.782z"/>
		<path fill="#F4EDDA" d="M23.876,32.334c-0.078,0-0.16-0.015-0.236-0.048c-0.268-0.113-0.418-0.401-0.357-0.686l0.607-2.852
			c0.02-0.098,0.064-0.189,0.129-0.265l6.293-7.459c0.207-0.247,0.572-0.288,0.828-0.094c0.258,0.194,0.32,0.555,0.141,0.823
			l-6.9,10.311C24.265,32.237,24.073,32.334,23.876,32.334z"/>
		<path fill="#F4EDDA" d="M39.646,32.334c-0.199,0-0.389-0.097-0.506-0.269l-6.898-10.311c-0.18-0.269-0.119-0.629,0.139-0.823
			s0.621-0.153,0.828,0.094l6.293,7.459c0.064,0.075,0.109,0.167,0.131,0.265l0.605,2.852c0.062,0.284-0.088,0.572-0.355,0.686
			C39.804,32.319,39.726,32.334,39.646,32.334z"/>
		<g>
			<path fill="#F4EDDA" d="M30.333,20.986L21.37,34.381c-0.188,0.279-0.111,0.656,0.166,0.842c0.104,0.07,0.221,0.104,0.338,0.104
				c0.195,0,0.387-0.095,0.504-0.271l8.965-13.395C30.929,21.562,30.577,21.318,30.333,20.986z"/>
			<path fill="#F4EDDA" d="M42.151,34.381l-8.965-13.395c-0.242,0.332-0.596,0.575-1.008,0.675l8.963,13.395
				c0.117,0.176,0.311,0.271,0.506,0.271c0.115,0,0.232-0.033,0.336-0.104C42.263,35.037,42.337,34.66,42.151,34.381z"/>
		</g>
		<path fill="#F4EDDA" d="M31.761,22.324c-1.311,0-2.379-1.067-2.379-2.379s1.068-2.378,2.379-2.378s2.377,1.066,2.377,2.378
			S33.071,22.324,31.761,22.324z M31.761,18.782c-0.643,0-1.164,0.521-1.164,1.163s0.521,1.164,1.164,1.164
			c0.641,0,1.164-0.522,1.164-1.164S32.401,18.782,31.761,18.782z"/>
		<path fill="#F4EDDA" d="M31.761,27.636c-3.043-0.001-5.984-1.093-8.283-3.076c-0.254-0.219-0.283-0.602-0.064-0.856
			c0.219-0.254,0.604-0.281,0.857-0.063c2.078,1.793,4.738,2.781,7.49,2.782c2.75,0,5.41-0.987,7.488-2.78
			c0.254-0.22,0.637-0.191,0.855,0.062c0.221,0.254,0.191,0.638-0.062,0.856C37.741,26.544,34.802,27.636,31.761,27.636z"/>
	</g>
</g>
</svg>
