<?xml version="1.0" encoding="utf-8"?>
<!-- Generator: Adobe Illustrator 16.0.0, SVG Export Plug-In . SVG Version: 6.00 Build 0)  -->
<!DOCTYPE svg PUBLIC "-//W3C//DTD SVG 1.1//EN" "http://www.w3.org/Graphics/SVG/1.1/DTD/svg11.dtd">
<svg version="1.1" id="Layer_1" xmlns="http://www.w3.org/2000/svg" xmlns:xlink="http://www.w3.org/1999/xlink" x="0px" y="0px"
	 width="59.959px" height="60.035px" viewBox="0 0 59.959 60.035" enable-background="new 0 0 59.959 60.035" xml:space="preserve">
<path fill="#662D91" d="M58.225,10.866H41.924l-1.621-9.388c-0.012-0.067-0.053-0.118-0.071-0.183
	c-0.034-0.115-0.071-0.225-0.127-0.327c-0.051-0.097-0.11-0.181-0.178-0.265c-0.071-0.09-0.146-0.171-0.235-0.245
	c-0.082-0.067-0.166-0.122-0.258-0.173c-0.102-0.058-0.201-0.105-0.312-0.143c-0.107-0.033-0.214-0.051-0.328-0.064
	c-0.067-0.008-0.129-0.041-0.199-0.041H21.366c-0.073,0-0.134,0.033-0.203,0.041c-0.112,0.014-0.216,0.031-0.32,0.064
	c-0.113,0.037-0.217,0.085-0.318,0.145c-0.091,0.051-0.175,0.104-0.254,0.171c-0.09,0.074-0.166,0.155-0.239,0.247
	c-0.066,0.083-0.125,0.166-0.176,0.261c-0.057,0.104-0.094,0.214-0.127,0.329c-0.02,0.064-0.06,0.115-0.071,0.183l-1.621,9.388
	H1.735C0.776,10.866,0,11.642,0,12.601v2.732v42.93c0,0.959,0.776,1.734,1.735,1.734h56.489c0.959,0,1.734-0.775,1.734-1.734v-42.93
	v-2.732C59.959,11.642,59.184,10.866,58.225,10.866z M3.47,30.065V17.067H56.49v12.998H3.47z M22.579,4.94h14.802l1.023,5.926
	H21.557L22.579,4.94z M3.47,56.528V33.534h8.354v13.928c0,0.959,0.775,1.734,1.734,1.734s1.734-0.775,1.734-1.734V33.534h29.373
	v13.928c0,0.959,0.776,1.734,1.734,1.734c0.959,0,1.735-0.775,1.735-1.734V33.534h8.354v22.994H3.47z"/>
</svg>
