<?xml version="1.0" encoding="utf-8"?>
<!-- Generator: Adobe Illustrator 16.0.0, SVG Export Plug-In . SVG Version: 6.00 Build 0)  -->
<!DOCTYPE svg PUBLIC "-//W3C//DTD SVG 1.1//EN" "http://www.w3.org/Graphics/SVG/1.1/DTD/svg11.dtd">
<svg version="1.1" id="Layer_1" xmlns="http://www.w3.org/2000/svg" xmlns:xlink="http://www.w3.org/1999/xlink" x="0px" y="0px"
	 width="21.36px" height="21.36px" viewBox="0 0 21.36 21.36" enable-background="new 0 0 21.36 21.36" xml:space="preserve">
<path fill="#662D91" d="M20.987,0.037h-7.812c-0.092,0-0.174,0.038-0.238,0.099L0.542,12.532c-0.326,0.325-0.504,0.753-0.504,1.214
	c0,0.459,0.178,0.892,0.504,1.214l5.859,5.86c0.324,0.323,0.756,0.503,1.215,0.503s0.889-0.18,1.211-0.503L21.226,8.425
	c0.061-0.064,0.096-0.147,0.096-0.237V0.371C21.321,0.187,21.173,0.037,20.987,0.037z M17.065,7.054
	c-0.783,0.786-2.051,0.786-2.832,0c-0.785-0.777-0.785-2.049,0-2.829c0.781-0.786,2.049-0.786,2.832,0
	C17.847,5.005,17.847,6.277,17.065,7.054z"/>
</svg>
