<?xml version="1.0" encoding="utf-8"?>
<!-- Generator: Adobe Illustrator 16.0.0, SVG Export Plug-In . SVG Version: 6.00 Build 0)  -->
<!DOCTYPE svg PUBLIC "-//W3C//DTD SVG 1.1//EN" "http://www.w3.org/Graphics/SVG/1.1/DTD/svg11.dtd">
<svg version="1.1" id="Layer_1" xmlns="http://www.w3.org/2000/svg" xmlns:xlink="http://www.w3.org/1999/xlink" x="0px" y="0px"
	 width="41.606px" height="41.606px" viewBox="0 0 41.606 41.606" enable-background="new 0 0 41.606 41.606" xml:space="preserve">
<path fill="#C6BFAE" d="M40.388,4.103h-3.066c-7.06-4.618-14.259-1.304-16.521-0.166c-0.651-0.327-1.109-0.832-2.548-1.283
	l-0.658-0.001c0-1.511-0.574-2.742-2.088-2.742H9.839c-0.019,0-0.032,0.01-0.049,0.01c-0.035-0.001-0.067-0.01-0.101-0.01
	c-1.282,0-2.325,1.042-2.325,2.322c0,0.115,0.036,0.219,0.065,0.325C6.375,2.926,5.319,3.422,4.28,4.103H1.219
	c-0.688,0-1.243,0.555-1.243,1.241V38.6c0,0.685,0.556,1.242,1.243,1.242h16.302c0.602,1.055,1.85,1.765,3.281,1.765
	s2.68-0.71,3.282-1.765h16.304c0.687,0,1.243-0.557,1.243-1.242V5.344C41.631,4.657,41.074,4.103,40.388,4.103z M39.145,9.06v25.996
	c-6.521-5.767-13.599-3.602-17.099-2.131V6.079C24.422,4.864,32.549,1.186,39.145,9.06z M19.56,6.081v26.842
	c-3.499-1.469-10.576-3.633-17.098,2.133V9.071c2.394-2.86,5.073-4.209,7.635-4.691v12.527c0,0.687,0.556,1.243,1.244,1.243h5.01
	c0.688,0,1.244-0.556,1.244-1.243L18.253,5.23C19.099,5.541,19.113,5.853,19.56,6.081z M15.509,2.395
	c0.142,0,0.257,0.116,0.257,0.258v13.013h-3.183V2.653c0-0.087-0.004-0.174-0.013-0.258H15.509z M23.214,37.358
	c-0.63,0-1.16,0.471-1.234,1.095c-0.037,0.316-0.531,0.669-1.178,0.669c-0.646,0-1.139-0.353-1.177-0.669
	c-0.074-0.625-0.604-1.095-1.234-1.095H5.324c7.055-4.935,14.458-0.216,14.837,0.011c0.054,0.032,0.114,0.037,0.17,0.061
	c0.078,0.031,0.151,0.067,0.233,0.083c0.081,0.015,0.158,0.012,0.238,0.012s0.156,0.003,0.236-0.012
	c0.082-0.016,0.156-0.05,0.232-0.083c0.058-0.022,0.119-0.028,0.173-0.061c0.378-0.227,7.782-4.943,14.837-0.011H23.214z"/>
</svg>
