<?xml version="1.0" encoding="utf-8"?>
<!-- Generator: Adobe Illustrator 16.0.0, SVG Export Plug-In . SVG Version: 6.00 Build 0)  -->
<!DOCTYPE svg PUBLIC "-//W3C//DTD SVG 1.1//EN" "http://www.w3.org/Graphics/SVG/1.1/DTD/svg11.dtd">
<svg version="1.1" id="Layer_1" xmlns="http://www.w3.org/2000/svg" xmlns:xlink="http://www.w3.org/1999/xlink" x="0px" y="0px"
	 width="59.959px" height="60.035px" viewBox="0 0 59.959 60.035" enable-background="new 0 0 59.959 60.035" xml:space="preserve">
<path fill="#662D91" d="M59.88,50.743c-0.083-0.206-0.206-0.393-0.37-0.559L36.931,27.608L55.926,3.143
	c0.554-0.713,0.446-1.738-0.244-2.322c-0.692-0.582-1.717-0.52-2.332,0.15L32.753,23.428L9.802,0.478
	c-0.66-0.659-1.726-0.659-2.385,0L0.449,7.447C0.132,7.763-0.045,8.191-0.045,8.639c0,0.446,0.177,0.875,0.494,1.19l23.356,23.356
	l-9.01,9.824c-0.311,0.34-0.469,0.792-0.44,1.251c0.032,0.459,0.25,0.889,0.604,1.183l0.113,0.095
	c-2.887,3.692-6.917,5.131-6.917,5.131c1.155,1.452-0.448,4.949-1.26,6.15c0,0-0.344,0.442-0.106,0.932
	c0.046,0.072,0.208,0.241,0.343,0.369l3.911-4.682c-0.281-0.367-0.281-0.891,0.025-1.258c0.356-0.426,0.989-0.48,1.412-0.126
	c0.428,0.355,0.484,0.99,0.13,1.413c-0.306,0.37-0.824,0.459-1.233,0.245l-3.914,4.688c0.15,0.11,0.344,0.239,0.426,0.275
	c0.523,0.141,0.893-0.277,0.893-0.277c1.042-1.014,4.202-3.21,5.832-2.335c0,0,0.7-4.22,3.822-7.719l0.115,0.098
	c0.304,0.254,0.686,0.391,1.079,0.391c0.059,0,0.121-0.004,0.182-0.009c0.454-0.049,0.87-0.283,1.15-0.642l7.798-10.042
	l21.403,21.403c0.316,0.315,0.745,0.494,1.192,0.494s0.876-0.178,1.191-0.494l1.326-1.327c0,0,0.011-0.006,0.013-0.009l5.629-5.636
	C60.004,52.075,60.127,51.352,59.88,50.743z M52.687,54.628L32.009,33.949l1.026-1.323l0.679,0.679l2.075-2.072l2.262,2.26
	l-1.527,1.528l2.383,2.384l1.529-1.528l2.263,2.265l-2.071,2.072l2.384,2.382l2.071-2.071l2.262,2.259l-1.528,1.528l2.384,2.384
	l1.527-1.528l2.265,2.265L49.92,49.51l2.384,2.384l2.072-2.074l1.556,1.558L52.687,54.628z M10.172,5.615L8.645,7.144l2.383,2.384
	L12.557,8l2.263,2.265l-2.075,2.073l2.385,2.384l2.075-2.074l2.261,2.26l-1.527,1.529l2.384,2.384l1.528-1.528l2.264,2.265
	l-2.074,2.073l2.384,2.385l2.074-2.073l2.26,2.259l-1.527,1.528l1.78,1.78l-1.646,1.796L5.362,7.303L8.61,4.055L10.172,5.615z"/>
</svg>
