<?xml version="1.0" encoding="utf-8"?>
<!-- Generator: Adobe Illustrator 16.0.0, SVG Export Plug-In . SVG Version: 6.00 Build 0)  -->
<!DOCTYPE svg PUBLIC "-//W3C//DTD SVG 1.1//EN" "http://www.w3.org/Graphics/SVG/1.1/DTD/svg11.dtd">
<svg version="1.1" id="Layer_1" xmlns="http://www.w3.org/2000/svg" xmlns:xlink="http://www.w3.org/1999/xlink" x="0px" y="0px"
	 width="41.606px" height="41.606px" viewBox="0 0 41.606 41.606" enable-background="new 0 0 41.606 41.606" xml:space="preserve">
<path fill="#C6BFAE" d="M41.4,39.732l-3.838-5.735l-1.154-5.431c-0.043-0.193-0.133-0.374-0.258-0.525l-3.807-4.51
	c1.734-0.895,3.377-1.976,4.877-3.266c0.502-0.435,0.559-1.192,0.125-1.697c-0.436-0.505-1.195-0.561-1.699-0.128
	c-1.492,1.29-3.141,2.358-4.889,3.21l-6.354-7.531c0.684-0.817,1.113-1.856,1.113-3.004c0-2.184-1.496-4.004-3.51-4.539v-5.37
	c0-0.665-0.539-1.204-1.205-1.204S19.6,0.541,19.6,1.206v5.37c-2.014,0.535-3.512,2.355-3.512,4.539c0,1.147,0.43,2.187,1.113,3.004
	l-6.354,7.531c-1.75-0.852-3.4-1.924-4.893-3.211c-0.504-0.437-1.266-0.378-1.697,0.124c-0.438,0.505-0.379,1.267,0.123,1.699
	c1.498,1.292,3.145,2.374,4.879,3.269l-3.803,4.51c-0.127,0.151-0.215,0.332-0.26,0.525l-1.154,5.431l-3.84,5.735
	c-0.369,0.552-0.221,1.3,0.334,1.67c0.205,0.138,0.434,0.203,0.668,0.203c0.387,0,0.768-0.188,1-0.534l9.254-13.83l1.457-2.176
	c2.525,0.836,5.182,1.296,7.887,1.296h0.002c2.703,0,5.359-0.46,7.887-1.295l1.455,2.175l9.254,13.83
	c0.232,0.347,0.613,0.534,1,0.534c0.232,0,0.463-0.065,0.668-0.203C41.623,41.032,41.771,40.284,41.4,39.732z M20.803,8.806
	c1.273,0,2.307,1.036,2.307,2.309c0,1.271-1.033,2.308-2.307,2.308s-2.307-1.037-2.307-2.308
	C18.496,9.842,19.529,8.806,20.803,8.806z M20.805,23.953h-0.002c-2.219,0-4.402-0.34-6.498-0.965l4.977-7.434
	c0.479,0.165,0.984,0.274,1.521,0.274c0.535,0,1.043-0.109,1.523-0.274l4.975,7.434C25.205,23.613,23.023,23.953,20.805,23.953z"/>
</svg>
