<?xml version="1.0" encoding="utf-8"?>
<!-- Generator: Adobe Illustrator 16.0.0, SVG Export Plug-In . SVG Version: 6.00 Build 0)  -->
<!DOCTYPE svg PUBLIC "-//W3C//DTD SVG 1.1//EN" "http://www.w3.org/Graphics/SVG/1.1/DTD/svg11.dtd">
<svg version="1.1" id="Layer_1" xmlns="http://www.w3.org/2000/svg" xmlns:xlink="http://www.w3.org/1999/xlink" x="0px" y="0px"
	 width="30.775px" height="30.775px" viewBox="0 0 30.775 30.775" enable-background="new 0 0 30.775 30.775" xml:space="preserve">
<path fill="#E2203D" d="M30.615,29.38l-2.839-4.241l-0.854-4.017c-0.03-0.143-0.097-0.276-0.191-0.389l-2.812-3.334
	c1.281-0.663,2.498-1.461,3.606-2.416c0.37-0.321,0.412-0.883,0.091-1.257c-0.322-0.372-0.885-0.414-1.255-0.094
	c-1.104,0.954-2.322,1.745-3.617,2.375l-4.697-5.569c0.505-0.605,0.822-1.375,0.822-2.223c0-1.614-1.106-2.961-2.596-3.357V0.886
	c0-0.491-0.399-0.891-0.892-0.891s-0.891,0.4-0.891,0.891v3.972C13,5.254,11.894,6.601,11.894,8.215
	c0,0.848,0.318,1.617,0.824,2.223l-4.7,5.569c-1.294-0.629-2.516-1.422-3.62-2.375c-0.372-0.322-0.933-0.279-1.254,0.091
	c-0.321,0.375-0.28,0.937,0.092,1.256c1.108,0.957,2.325,1.756,3.608,2.419L4.03,20.733c-0.095,0.112-0.16,0.246-0.191,0.389
	l-0.853,4.017L0.146,29.38c-0.273,0.41-0.164,0.962,0.245,1.235c0.152,0.103,0.323,0.151,0.495,0.151c0.287,0,0.567-0.14,0.74-0.396
	l6.843-10.228l1.077-1.609c1.87,0.618,3.834,0.957,5.835,0.957h0.002c1.999,0,3.963-0.339,5.833-0.957l1.077,1.609l6.841,10.228
	c0.174,0.256,0.456,0.396,0.742,0.396c0.17,0,0.343-0.049,0.495-0.151C30.779,30.342,30.89,29.79,30.615,29.38z M15.381,6.508
	c0.941,0,1.707,0.768,1.707,1.708c0,0.941-0.766,1.706-1.707,1.706s-1.707-0.765-1.707-1.706
	C13.674,7.275,14.439,6.508,15.381,6.508z M15.383,17.71h-0.002c-1.642,0-3.256-0.252-4.806-0.713l3.681-5.498
	c0.354,0.12,0.73,0.202,1.125,0.202s0.771-0.082,1.126-0.202l3.68,5.498C18.637,17.459,17.022,17.71,15.383,17.71z"/>
</svg>
