<?xml version="1.0" encoding="utf-8"?>
<!-- Generator: Adobe Illustrator 16.0.0, SVG Export Plug-In . SVG Version: 6.00 Build 0)  -->
<!DOCTYPE svg PUBLIC "-//W3C//DTD SVG 1.1//EN" "http://www.w3.org/Graphics/SVG/1.1/DTD/svg11.dtd">
<svg version="1.1" id="Layer_1" xmlns="http://www.w3.org/2000/svg" xmlns:xlink="http://www.w3.org/1999/xlink" x="0px" y="0px"
	 width="41.606px" height="41.606px" viewBox="0 0 41.606 41.606" enable-background="new 0 0 41.606 41.606" xml:space="preserve">
<path fill="#C6BFAE" d="M40.404,0H1.207C0.541,0,0,0.539,0,1.207V23.06v1.394c0,0.668,0.541,1.202,1.207,1.202h11.836l-2.096,5.566
	H6.966c-0.669,0-1.206,0.544-1.206,1.207c0,0.663,0.537,1.201,1.206,1.201h3.071l-2.396,6.348c-0.232,0.624,0.079,1.318,0.7,1.55
	c0.143,0.056,0.287,0.079,0.424,0.079c0.488,0,0.945-0.298,1.129-0.779l2.717-7.198h6.99v6.772c0,0.664,0.539,1.205,1.203,1.205
	s1.201-0.541,1.201-1.205v-6.772h6.992l2.715,7.198c0.182,0.48,0.639,0.779,1.129,0.779c0.141,0,0.283-0.023,0.424-0.079
	c0.623-0.232,0.936-0.927,0.699-1.55l-2.395-6.348h3.076c0.668,0,1.207-0.539,1.207-1.201c0-0.663-0.539-1.207-1.207-1.207h-3.98
	l-2.102-5.566h11.84c0.664,0,1.201-0.534,1.201-1.202V23.06V1.207C41.605,0.539,41.068,0,40.404,0z M2.411,2.408h36.786v19.45H2.411
	V2.408z M13.52,31.221l2.096-5.566h3.986v5.566H13.52z M28.09,31.221h-6.084v-5.566h3.984L28.09,31.221z"/>
</svg>
